<svg id="Layer_1" data-name="Layer 1" xmlns="http://www.w3.org/2000/svg" viewBox="0 0 2116.81 1534.33"><defs><style>.cls-1{opacity:0.03;}.cls-2{fill:#5326ec;fill-rule:evenodd;}</style></defs><title>curves_about_us</title><g class="cls-1"><path class="cls-2" d="M180.16,372.52l.27.32,6,6,1.55,1.25h0c1.38,1.12,2.89,2.39,4.48,3.73h0c3.84,3.25,8.19,6.91,12.52,9.95h0a162.08,162.08,0,0,0,198.87-9.57h0c27-23.23,44.49-52.46,52.63-87h0c.22-.92.44-2,.62-2.83h0c.07-.34.14-.66.2-.93l2.87-13.33-53-.19L404.89,288c-8.05,29.1-24.91,52-50.5,67.5-41.17,24.87-95,19.31-130.44-13.36h0a114,114,0,0,1-33.17-54l-2.17-8.06-8.35-.12c-3,0-6.07,0-9,0h-3l-31.85,0,2.78,13.33a163.24,163.24,0,0,0,32.65,69.57h0c1.88,2.34,4,4.76,5.92,7h0C178.58,370.71,179.41,371.65,180.16,372.52ZM150,290.94h0q1.17,5.61,2.72,11.06a151.19,151.19,0,0,0,27.73,53.84c1.74,2.16,3.58,4.25,5.41,6.34h0c.91,1,1.83,2.08,2.73,3.14l5.26,5.26,1.12.9c1.72,1.4,3.43,2.83,5.13,4.27h0c3.67,3.1,7.34,6.2,11.26,8.95a151.22,151.22,0,0,0,153,12.36,151.22,151.22,0,0,1-153-12.36c-3.92-2.75-7.59-5.85-11.26-8.95-1.7-1.44-3.41-2.87-5.13-4.27l-1.12-.9-5.26-5.26c-.9-1.06-1.81-2.1-2.73-3.14-1.83-2.09-3.67-4.18-5.41-6.34A152.27,152.27,0,0,1,150,290.94Zm252.56,31.3a131.42,131.42,0,0,0,13-31.28h0A131.42,131.42,0,0,1,402.51,322.24Z"/><path class="cls-2" d="M452.38,372.52l.27.32,6,6,1.55,1.25h0c1.38,1.12,2.89,2.39,4.48,3.73h0c3.84,3.25,8.19,6.91,12.52,9.95h0a162.08,162.08,0,0,0,198.87-9.57h0c27-23.23,44.49-52.46,52.63-87h0c.22-.92.44-2,.62-2.83h0c.07-.34.14-.66.19-.93l2.87-13.33-53-.19L677.11,288c-8.05,29.1-24.91,52-50.5,67.5-41.17,24.87-95,19.31-130.44-13.36h0a114,114,0,0,1-33.17-54l-2.17-8.06-8.35-.12c-3,0-6.07,0-9,0h-3l-31.85,0,2.78,13.33A163.24,163.24,0,0,0,444,362.77h0c1.88,2.34,4,4.76,5.92,7h0C450.8,370.71,451.63,371.65,452.38,372.52Zm-30.21-81.58h0q1.17,5.61,2.72,11.06a151.19,151.19,0,0,0,27.73,53.84c1.74,2.16,3.58,4.25,5.41,6.34h0c.91,1,1.83,2.08,2.73,3.14l5.26,5.26,1.12.9c1.72,1.4,3.43,2.83,5.13,4.27h0c3.67,3.1,7.34,6.2,11.26,8.95a151.22,151.22,0,0,0,153,12.36,151.22,151.22,0,0,1-153-12.36c-3.92-2.75-7.59-5.85-11.26-8.95-1.7-1.44-3.41-2.87-5.13-4.27l-1.12-.9-5.25-5.26c-.91-1.06-1.82-2.1-2.74-3.14-1.83-2.09-3.67-4.18-5.41-6.34A152.27,152.27,0,0,1,422.17,290.94Zm252.56,31.3a131.83,131.83,0,0,0,13-31.28h0A131.83,131.83,0,0,1,674.73,322.24Z"/><path class="cls-2" d="M180.16,1208.52l.27.32,6,6,1.55,1.25h0c1.38,1.12,2.89,2.39,4.48,3.73h0c3.84,3.24,8.19,6.9,12.52,9.94h0a162.08,162.08,0,0,0,198.87-9.57h0c27-23.23,44.49-52.46,52.63-87h0c.22-.92.44-2,.62-2.82h0c.07-.35.14-.67.2-.93l2.87-13.34-53-.18-2.26,8.13c-8.05,29.1-24.91,52-50.5,67.51-41.17,24.86-95,19.3-130.44-13.37h0a113.91,113.91,0,0,1-33.17-54l-2.17-8.06-8.35-.11c-3,0-6.07,0-9,0h-3l-31.85,0,2.78,13.33a163.24,163.24,0,0,0,32.65,69.57h0c1.88,2.34,4,4.76,5.92,7h0ZM150,1127h0q1.17,5.6,2.72,11.06a151.06,151.06,0,0,0,27.73,53.83c1.74,2.16,3.58,4.25,5.41,6.34h0c.91,1,1.83,2.09,2.73,3.14l5.26,5.26,1.12.9c1.72,1.4,3.43,2.83,5.13,4.27h0c3.67,3.1,7.34,6.2,11.26,9a151.22,151.22,0,0,0,153,12.36,151.22,151.22,0,0,1-153-12.36c-3.92-2.75-7.59-5.85-11.26-9-1.7-1.44-3.41-2.87-5.13-4.27l-1.12-.9-5.26-5.26c-.9-1-1.81-2.1-2.73-3.14-1.83-2.09-3.67-4.18-5.41-6.34A152.23,152.23,0,0,1,150,1127Zm252.56,31.3a131.66,131.66,0,0,0,13-31.29h0A131.66,131.66,0,0,1,402.51,1158.25Z"/><path class="cls-2" d="M452.38,1208.52l.27.32,6,6,1.55,1.25h0c1.38,1.12,2.89,2.39,4.48,3.73h0c3.84,3.24,8.19,6.9,12.52,9.94h0a162.08,162.08,0,0,0,198.87-9.57h0c27-23.23,44.49-52.46,52.63-87h0c.22-.92.44-2,.62-2.82h0c.07-.35.14-.67.19-.93l2.87-13.34-53-.18-2.25,8.13c-8.05,29.1-24.91,52-50.5,67.51-41.17,24.86-95,19.3-130.44-13.37h0a113.91,113.91,0,0,1-33.17-54l-2.17-8.06-8.35-.11c-3,0-6.07,0-9,0h-3l-31.85,0,2.78,13.33A163.24,163.24,0,0,0,444,1198.77h0c1.88,2.34,4,4.76,5.92,7h0ZM422.17,1127h0q1.17,5.6,2.72,11.06a151.06,151.06,0,0,0,27.73,53.83c1.74,2.16,3.58,4.25,5.41,6.34h0c.91,1,1.83,2.09,2.73,3.14l5.26,5.26,1.12.9c1.72,1.4,3.43,2.83,5.13,4.27h0c3.67,3.1,7.34,6.2,11.26,9a151.22,151.22,0,0,0,153,12.36,151.22,151.22,0,0,1-153-12.36c-3.92-2.75-7.59-5.85-11.26-9-1.7-1.44-3.41-2.87-5.13-4.27l-1.12-.9-5.25-5.26c-.91-1-1.82-2.1-2.74-3.14-1.83-2.09-3.67-4.18-5.41-6.34A152.23,152.23,0,0,1,422.17,1127Zm252.56,31.3a132.08,132.08,0,0,0,13-31.29h0A132.08,132.08,0,0,1,674.73,1158.25Z"/><path class="cls-2" d="M725.91,372.52l.27.32,6,6,1.55,1.25h0c1.39,1.12,2.89,2.39,4.48,3.73h0c3.85,3.25,8.19,6.91,12.53,9.95h0a162.08,162.08,0,0,0,198.87-9.57h0c27-23.23,44.49-52.46,52.63-87h0c.21-.92.43-2,.61-2.83h0c.08-.34.14-.66.2-.93l2.87-13.33-53-.19L950.65,288c-8,29.1-24.92,52-50.51,67.5-41.17,24.87-95,19.31-130.44-13.36h0a113.93,113.93,0,0,1-33.17-54l-2.18-8.06-8.35-.12c-3,0-6.07,0-9,0h-3l-31.85,0,2.77,13.33a163.14,163.14,0,0,0,32.66,69.57h0c1.89,2.34,4,4.76,5.93,7h0Zm-30.2-81.58h0q1.15,5.61,2.71,11.06a151.35,151.35,0,0,0,27.73,53.84c1.75,2.16,3.58,4.25,5.41,6.34h0c.92,1,1.83,2.08,2.74,3.14l5.26,5.26,1.11.9c1.73,1.4,3.43,2.83,5.13,4.27h0c3.67,3.1,7.35,6.2,11.27,8.95a151.2,151.2,0,0,0,153,12.36,151.2,151.2,0,0,1-153-12.36c-3.92-2.75-7.6-5.85-11.27-8.95-1.7-1.44-3.4-2.87-5.13-4.27l-1.11-.9-5.26-5.26c-.9-1.06-1.82-2.1-2.74-3.14-1.83-2.09-3.66-4.18-5.41-6.34A152.13,152.13,0,0,1,695.71,290.94Zm252.55,31.3a131,131,0,0,0,13-31.28h0A131,131,0,0,1,948.26,322.24Z"/><path class="cls-2" d="M999.58,372.52l.27.32,6,6,1.55,1.25h0c1.38,1.12,2.88,2.39,4.47,3.73h0c3.85,3.25,8.19,6.91,12.53,9.95h0a162.08,162.08,0,0,0,198.87-9.57h0c27-23.23,44.49-52.46,52.63-87h0c.21-.92.43-2,.61-2.83h0c.08-.34.14-.66.2-.93l2.87-13.33-53-.19-2.25,8.14c-8,29.1-24.91,52-50.51,67.5-41.17,24.87-95,19.31-130.44-13.36h0a114,114,0,0,1-33.17-54l-2.18-8.06-8.35-.12c-3,0-6.07,0-9,0h-3l-31.85,0,2.77,13.33a163.14,163.14,0,0,0,32.66,69.57h0c1.89,2.34,4,4.76,5.93,7h0Zm-30.2-81.58h0q1.15,5.61,2.71,11.06a151.21,151.21,0,0,0,27.74,53.84c1.74,2.16,3.57,4.25,5.4,6.34h0c.92,1,1.84,2.08,2.74,3.14l5.26,5.26,1.11.9c1.73,1.4,3.43,2.83,5.13,4.27h0c3.67,3.1,7.35,6.2,11.27,8.95a151.2,151.2,0,0,0,153,12.36,151.2,151.2,0,0,1-153-12.36c-3.92-2.75-7.6-5.85-11.27-8.95-1.7-1.44-3.4-2.87-5.13-4.27l-1.11-.9-5.26-5.26c-.9-1.06-1.82-2.1-2.74-3.14-1.83-2.09-3.66-4.18-5.4-6.34A152,152,0,0,1,969.38,290.94Zm252.55,31.3A131.44,131.44,0,0,0,1235,291h0A131.44,131.44,0,0,1,1221.93,322.24Z"/><path class="cls-2" d="M1273.6,372.52l.27.32,6,6,1.55,1.25h0c1.38,1.12,2.89,2.39,4.48,3.73h0c3.84,3.25,8.19,6.91,12.52,9.95h0a162.08,162.08,0,0,0,198.87-9.57h0c27-23.23,44.49-52.46,52.63-87h0c.22-.92.44-2,.62-2.83h0c.07-.34.14-.66.2-.93l2.87-13.33-53-.19-2.26,8.14c-8,29.1-24.91,52-50.5,67.5-41.17,24.87-95,19.31-130.44-13.36h0a114,114,0,0,1-33.17-54l-2.17-8.06-8.35-.12c-3,0-6.07,0-9,0h-3l-31.85,0,2.78,13.33a163.24,163.24,0,0,0,32.65,69.57h0c1.88,2.34,4,4.76,5.92,7h0C1272,370.71,1272.85,371.65,1273.6,372.52Zm-30.21-81.58h0q1.17,5.61,2.71,11.06a151.37,151.37,0,0,0,27.74,53.84c1.74,2.16,3.58,4.25,5.41,6.34h0c.91,1,1.83,2.08,2.73,3.14l5.26,5.26,1.12.9c1.72,1.4,3.43,2.83,5.13,4.27h0c3.67,3.1,7.34,6.2,11.26,8.95a151.22,151.22,0,0,0,153,12.36,151.22,151.22,0,0,1-153-12.36c-3.92-2.75-7.59-5.85-11.26-8.95-1.7-1.44-3.4-2.87-5.13-4.27l-1.12-.9-5.26-5.26c-.9-1.06-1.82-2.1-2.73-3.14-1.83-2.09-3.67-4.18-5.41-6.34A152.27,152.27,0,0,1,1243.39,290.94ZM1496,322.24A131.42,131.42,0,0,0,1509,291h0A131.42,131.42,0,0,1,1496,322.24Z"/><path class="cls-2" d="M1545.82,372.52l.27.32,6,6,1.55,1.25h0c1.38,1.12,2.89,2.39,4.48,3.73h0c3.84,3.25,8.19,6.91,12.52,9.95h0a162.08,162.08,0,0,0,198.87-9.57h0c27-23.23,44.49-52.46,52.63-87h0c.22-.92.44-2,.62-2.83h0c.07-.34.14-.66.2-.93l2.87-13.33-53-.19-2.26,8.14c-8,29.1-24.91,52-50.5,67.5-41.17,24.87-95,19.31-130.44-13.36h0a114,114,0,0,1-33.17-54l-2.17-8.06-8.35-.12c-3,0-6.07,0-9,0h-3l-31.85,0,2.78,13.33a163.24,163.24,0,0,0,32.65,69.57h0c1.88,2.34,4,4.76,5.92,7h0C1544.24,370.71,1545.07,371.65,1545.82,372.52Zm-30.21-81.58h0q1.17,5.61,2.72,11.06a151.19,151.19,0,0,0,27.73,53.84c1.74,2.16,3.58,4.25,5.41,6.34h0c.91,1,1.83,2.08,2.73,3.14l5.26,5.26,1.12.9c1.72,1.4,3.43,2.83,5.13,4.27h0c3.67,3.1,7.34,6.2,11.26,8.95a151.22,151.22,0,0,0,153,12.36,151.22,151.22,0,0,1-153-12.36c-3.92-2.75-7.59-5.85-11.26-8.95-1.7-1.44-3.41-2.87-5.13-4.27l-1.12-.9-5.26-5.26c-.9-1.06-1.81-2.1-2.73-3.14-1.83-2.09-3.67-4.18-5.41-6.34A152.27,152.27,0,0,1,1515.61,290.94Zm252.56,31.3a131.42,131.42,0,0,0,13-31.28h0A131.42,131.42,0,0,1,1768.17,322.24Z"/><path class="cls-2" d="M725.91,1208.52l.27.32,6,6,1.55,1.25h0c1.39,1.12,2.89,2.39,4.48,3.73h0c3.85,3.24,8.19,6.9,12.53,9.94h0a162.08,162.08,0,0,0,198.87-9.57h0c27-23.23,44.49-52.46,52.63-87h0c.21-.92.43-2,.61-2.82h0c.08-.35.14-.67.2-.93l2.87-13.34-53-.18-2.25,8.13c-8,29.1-24.92,52-50.51,67.51-41.17,24.86-95,19.3-130.44-13.37h0a113.83,113.83,0,0,1-33.17-54l-2.18-8.06L726,1116c-3,0-6.07,0-9,0h-3l-31.85,0,2.77,13.33a163.14,163.14,0,0,0,32.66,69.57h0c1.89,2.34,4,4.76,5.93,7h0ZM695.71,1127h0q1.15,5.6,2.71,11.06a151.22,151.22,0,0,0,27.73,53.83c1.75,2.16,3.58,4.25,5.41,6.34h0c.92,1,1.83,2.09,2.74,3.14l5.26,5.26,1.11.9c1.73,1.4,3.43,2.83,5.13,4.27h0c3.67,3.1,7.35,6.2,11.27,9a151.2,151.2,0,0,0,153,12.36,151.2,151.2,0,0,1-153-12.36c-3.92-2.75-7.6-5.85-11.27-9-1.7-1.44-3.4-2.87-5.13-4.27l-1.11-.9-5.26-5.26c-.9-1-1.82-2.1-2.74-3.14-1.83-2.09-3.66-4.18-5.41-6.34A152.09,152.09,0,0,1,695.71,1127Zm252.55,31.3a131.25,131.25,0,0,0,13-31.29h0A131.25,131.25,0,0,1,948.26,1158.25Z"/><path class="cls-2" d="M999.58,1208.52l.27.32,6,6,1.55,1.25h0c1.38,1.12,2.88,2.39,4.47,3.73h0c3.85,3.24,8.19,6.9,12.53,9.94h0a162.08,162.08,0,0,0,198.87-9.57h0c27-23.23,44.49-52.46,52.63-87h0c.21-.92.43-2,.61-2.82h0c.08-.35.14-.67.2-.93l2.87-13.34-53-.18-2.25,8.13c-8,29.1-24.91,52-50.51,67.51-41.17,24.86-95,19.3-130.44-13.37h0a113.91,113.91,0,0,1-33.17-54l-2.18-8.06-8.35-.11c-3,0-6.07,0-9,0h-3l-31.85,0,2.77,13.33a163.14,163.14,0,0,0,32.66,69.57h0c1.89,2.34,4,4.76,5.93,7h0ZM969.38,1127h0q1.15,5.6,2.71,11.06a151.08,151.08,0,0,0,27.74,53.83c1.74,2.16,3.57,4.25,5.4,6.34h0c.92,1,1.84,2.09,2.74,3.14l5.26,5.26,1.11.9c1.73,1.4,3.43,2.83,5.13,4.27h0c3.67,3.1,7.35,6.2,11.27,9a151.2,151.2,0,0,0,153,12.36,151.2,151.2,0,0,1-153-12.36c-3.92-2.75-7.6-5.85-11.27-9-1.7-1.44-3.4-2.87-5.13-4.27l-1.11-.9-5.26-5.26c-.9-1-1.82-2.1-2.74-3.14-1.83-2.09-3.66-4.18-5.4-6.34A152,152,0,0,1,969.38,1127Zm252.55,31.3a131.69,131.69,0,0,0,13-31.29h0A131.69,131.69,0,0,1,1221.93,1158.25Z"/><path class="cls-2" d="M1273.6,1208.52l.27.32,6,6,1.55,1.25h0c1.38,1.12,2.89,2.39,4.48,3.73h0c3.84,3.24,8.19,6.9,12.52,9.94h0a162.08,162.08,0,0,0,198.87-9.57h0c27-23.23,44.49-52.46,52.63-87h0c.22-.92.44-2,.62-2.82h0c.07-.35.14-.67.2-.93l2.87-13.34-53-.18-2.26,8.13c-8,29.1-24.91,52-50.5,67.51-41.17,24.86-95,19.3-130.44-13.37h0a113.91,113.91,0,0,1-33.17-54l-2.17-8.06-8.35-.11c-3,0-6.07,0-9,0h-3l-31.85,0,2.78,13.33a163.24,163.24,0,0,0,32.65,69.57h0c1.88,2.34,4,4.76,5.92,7h0ZM1243.39,1127h0q1.17,5.6,2.71,11.06a151.25,151.25,0,0,0,27.74,53.83c1.74,2.16,3.58,4.25,5.41,6.34h0c.91,1,1.83,2.09,2.73,3.14l5.26,5.26,1.12.9c1.72,1.4,3.43,2.83,5.13,4.27h0c3.67,3.1,7.34,6.2,11.26,9a151.22,151.22,0,0,0,153,12.36,151.22,151.22,0,0,1-153-12.36c-3.92-2.75-7.59-5.85-11.26-9-1.7-1.44-3.4-2.87-5.13-4.27l-1.12-.9-5.26-5.26c-.9-1-1.82-2.1-2.73-3.14-1.83-2.09-3.67-4.18-5.41-6.34A152.23,152.23,0,0,1,1243.39,1127Zm252.56,31.3a131.66,131.66,0,0,0,13-31.29h0A131.66,131.66,0,0,1,1496,1158.25Z"/><path class="cls-2" d="M1545.82,1208.52l.27.32,6,6,1.55,1.25h0c1.38,1.12,2.89,2.39,4.48,3.73h0c3.84,3.24,8.19,6.9,12.52,9.94h0a162.08,162.08,0,0,0,198.87-9.57h0c27-23.23,44.49-52.46,52.63-87h0c.22-.92.44-2,.62-2.82h0c.07-.35.14-.67.2-.93l2.87-13.34-53-.18-2.26,8.13c-8,29.1-24.91,52-50.5,67.51-41.17,24.86-95,19.3-130.44-13.37h0a113.91,113.91,0,0,1-33.17-54l-2.17-8.06-8.35-.11c-3,0-6.07,0-9,0h-3l-31.85,0,2.78,13.33a163.24,163.24,0,0,0,32.65,69.57h0c1.88,2.34,4,4.76,5.92,7h0ZM1515.61,1127h0q1.17,5.6,2.72,11.06a151.06,151.06,0,0,0,27.73,53.83c1.74,2.16,3.58,4.25,5.41,6.34h0c.91,1,1.83,2.09,2.73,3.14l5.26,5.26,1.12.9c1.72,1.4,3.43,2.83,5.13,4.27h0c3.67,3.1,7.34,6.2,11.26,9a151.22,151.22,0,0,0,153,12.36,151.22,151.22,0,0,1-153-12.36c-3.92-2.75-7.59-5.85-11.26-9-1.7-1.44-3.41-2.87-5.13-4.27l-1.12-.9-5.26-5.26c-.9-1-1.81-2.1-2.73-3.14-1.83-2.09-3.67-4.18-5.41-6.34A152.23,152.23,0,0,1,1515.61,1127Zm252.56,31.3a131.66,131.66,0,0,0,13-31.29h0A131.66,131.66,0,0,1,1768.17,1158.25Z"/><path class="cls-2" d="M180.36,648.65l.28.32,6,6,1.55,1.25h0c1.38,1.12,2.89,2.39,4.47,3.73h0c3.84,3.25,8.19,6.91,12.52,10h0A162.08,162.08,0,0,0,404,660.31h0c27-23.23,44.49-52.46,52.63-87h0c.22-.92.44-2,.62-2.82h0c.07-.35.14-.67.19-.93l2.87-13.34-53-.19-2.25,8.14c-8.05,29.1-24.91,52-50.5,67.51-41.17,24.86-95,19.3-130.45-13.37h0a113.91,113.91,0,0,1-33.17-54l-2.17-8.06-8.36-.12c-3,0-6.06,0-9,0h-3l-31.85,0,2.77,13.33A163.37,163.37,0,0,0,172,638.9h0c1.88,2.34,4,4.76,5.92,7h0C178.79,646.84,179.62,647.78,180.36,648.65Zm-30.2-81.58h0q1.17,5.61,2.71,11.07A151.25,151.25,0,0,0,180.61,632c1.74,2.16,3.57,4.25,5.41,6.34h0c.91,1,1.83,2.09,2.73,3.14l5.26,5.26,1.12.9c1.72,1.4,3.42,2.83,5.12,4.27h0c3.68,3.1,7.35,6.2,11.27,9a151.22,151.22,0,0,0,153,12.36,151.22,151.22,0,0,1-153-12.36c-3.92-2.75-7.59-5.85-11.26-9-1.71-1.44-3.41-2.87-5.13-4.27l-1.12-.9-5.26-5.26c-.9-1.05-1.82-2.1-2.73-3.14-1.84-2.09-3.67-4.18-5.41-6.34A152.21,152.21,0,0,1,150.16,567.07Zm252.56,31.3a131.83,131.83,0,0,0,13-31.28h0A131.83,131.83,0,0,1,402.72,598.37Z"/><path class="cls-2" d="M452.38,648.65l.27.32,6,6,1.55,1.25h0c1.38,1.12,2.89,2.39,4.48,3.73h0c3.84,3.25,8.19,6.91,12.52,10h0a162.08,162.08,0,0,0,198.87-9.57h0c27-23.23,44.49-52.46,52.63-87h0c.22-.92.44-2,.62-2.82h0c.07-.35.14-.67.19-.93l2.87-13.34-53-.19-2.25,8.14c-8.05,29.1-24.91,52-50.5,67.51-41.17,24.86-95,19.3-130.44-13.37h0a113.91,113.91,0,0,1-33.17-54l-2.17-8.06-8.35-.12c-3,0-6.07,0-9,0h-3l-31.85,0,2.78,13.33A163.24,163.24,0,0,0,444,638.9h0c1.88,2.34,4,4.76,5.92,7h0C450.8,646.84,451.63,647.78,452.38,648.65Zm-30.21-81.58h0q1.17,5.61,2.72,11.07A151.06,151.06,0,0,0,452.62,632c1.74,2.16,3.58,4.25,5.41,6.34h0c.91,1,1.83,2.09,2.73,3.14l5.26,5.26,1.12.9c1.72,1.4,3.43,2.83,5.13,4.27h0c3.67,3.1,7.34,6.2,11.26,9a151.22,151.22,0,0,0,153,12.36,151.22,151.22,0,0,1-153-12.36c-3.92-2.75-7.59-5.85-11.26-9-1.7-1.44-3.41-2.87-5.13-4.27l-1.12-.9-5.25-5.26c-.91-1.05-1.82-2.1-2.74-3.14-1.83-2.09-3.67-4.18-5.41-6.34A152.21,152.21,0,0,1,422.17,567.07Zm252.1,32.09a131.52,131.52,0,0,0,13.5-32.07h0A131.52,131.52,0,0,1,674.27,599.16Z"/><path class="cls-2" d="M180.36,1484.66l.28.31,6,6,1.55,1.25h0c1.38,1.13,2.89,2.39,4.47,3.73h0c3.84,3.24,8.19,6.9,12.52,9.94h0A162.06,162.06,0,0,0,404,1496.31h0c27-23.23,44.49-52.46,52.63-87h0c.22-.92.44-2,.62-2.83h0c.07-.35.14-.67.19-.93l2.87-13.34-53-.18-2.25,8.14c-8.05,29.09-24.91,52-50.5,67.5-41.17,24.86-95,19.3-130.45-13.36h0a113.93,113.93,0,0,1-33.17-54l-2.17-8.07-8.36-.11c-3,0-6.06,0-9,0h-3l-31.85,0,2.77,13.32A163.37,163.37,0,0,0,172,1474.9h0c1.88,2.35,4,4.76,5.92,6.95h0C178.79,1482.84,179.62,1483.79,180.36,1484.66Zm-30.2-81.58h0q1.17,5.6,2.71,11.06A151.25,151.25,0,0,0,180.61,1468c1.74,2.16,3.57,4.25,5.41,6.34h0c.91,1,1.83,2.09,2.73,3.14l5.26,5.26,1.12.9c1.72,1.4,3.42,2.84,5.12,4.27h0c3.68,3.1,7.35,6.2,11.27,8.95a151.19,151.19,0,0,0,153,12.36,151.22,151.22,0,0,1-153-12.36c-3.92-2.75-7.59-5.85-11.26-8.95-1.71-1.43-3.41-2.87-5.13-4.27l-1.12-.9-5.26-5.26c-.9-1-1.82-2.09-2.73-3.14-1.84-2.09-3.67-4.18-5.41-6.34A152.23,152.23,0,0,1,150.16,1403.08Zm252.56,31.3a132.08,132.08,0,0,0,13-31.29h0A132.08,132.08,0,0,1,402.72,1434.38Z"/><path class="cls-2" d="M452.38,1484.66l.27.31,6,6,1.55,1.25h0c1.38,1.13,2.89,2.39,4.48,3.73h0c3.84,3.24,8.19,6.9,12.52,9.94h0a162.06,162.06,0,0,0,198.87-9.57h0c27-23.23,44.49-52.46,52.63-87h0c.22-.92.44-2,.62-2.83h0c.07-.35.14-.67.19-.93l2.87-13.34-53-.18-2.25,8.14c-8.05,29.09-24.91,52-50.5,67.5-41.17,24.86-95,19.3-130.44-13.36h0a113.93,113.93,0,0,1-33.17-54l-2.17-8.07-8.35-.11c-3,0-6.07,0-9,0h-3l-31.85,0,2.78,13.32A163.24,163.24,0,0,0,444,1474.9h0c1.88,2.35,4,4.76,5.92,6.95h0Zm-30.21-81.58h0q1.17,5.6,2.72,11.06A151.06,151.06,0,0,0,452.62,1468c1.74,2.16,3.58,4.25,5.41,6.34h0c.91,1,1.83,2.09,2.73,3.14l5.26,5.26,1.12.9c1.72,1.4,3.43,2.84,5.13,4.27h0c3.67,3.1,7.34,6.2,11.26,8.95a151.19,151.19,0,0,0,153,12.36,151.22,151.22,0,0,1-153-12.36c-3.92-2.75-7.59-5.85-11.26-8.95-1.7-1.43-3.41-2.87-5.13-4.27l-1.12-.9-5.25-5.26-2.74-3.14c-1.83-2.09-3.67-4.18-5.41-6.34A152.23,152.23,0,0,1,422.17,1403.08Zm252.1,32.08a131.35,131.35,0,0,0,13.5-32.07h0A131.35,131.35,0,0,1,674.27,1435.16Z"/><path class="cls-2" d="M728.91,648.65l.27.32,6,6,1.55,1.25h0c1.39,1.12,2.89,2.39,4.48,3.73h0c3.85,3.25,8.19,6.91,12.53,10h0a162.08,162.08,0,0,0,198.87-9.57h0c27-23.23,44.49-52.46,52.63-87h0c.21-.92.43-2,.61-2.82.08-.35.14-.67.2-.93l2.87-13.34-53-.19-2.25,8.14c-8,29.1-24.92,52-50.51,67.51-41.17,24.86-95,19.3-130.44-13.37h0a113.83,113.83,0,0,1-33.17-54l-2.18-8.06-8.35-.12c-3,0-6.07,0-9,0h-3l-31.85,0,2.77,13.33a163.14,163.14,0,0,0,32.66,69.57h0c1.89,2.34,4,4.76,5.92,7h0Zm-30.2-81.58h0q1.15,5.61,2.71,11.07A151.22,151.22,0,0,0,729.15,632c1.75,2.16,3.58,4.25,5.41,6.34.92,1,1.83,2.09,2.74,3.14l5.26,5.26,1.11.9c1.73,1.4,3.43,2.83,5.13,4.27h0c3.67,3.1,7.35,6.2,11.27,9a151.2,151.2,0,0,0,153,12.36,151.2,151.2,0,0,1-153-12.36c-3.92-2.75-7.6-5.85-11.27-9-1.7-1.44-3.4-2.87-5.13-4.27l-1.11-.9-5.26-5.26c-.9-1.05-1.82-2.1-2.74-3.14-1.83-2.09-3.66-4.18-5.41-6.34A152.08,152.08,0,0,1,698.71,567.07ZM949.6,601.13a130.12,130.12,0,0,0,14.7-34h0A130.12,130.12,0,0,1,949.6,601.13Z"/><path class="cls-2" d="M1002.58,648.65l.27.32,6,6,1.55,1.25h0c1.38,1.12,2.88,2.39,4.47,3.73h0c3.85,3.25,8.19,6.91,12.53,10h0a162.08,162.08,0,0,0,198.87-9.57h0c27-23.23,44.49-52.46,52.63-87h0c.21-.92.43-2,.61-2.82h0c.08-.35.14-.67.2-.93l2.87-13.34-53-.19-2.25,8.14c-8,29.1-24.91,52-50.51,67.51-41.17,24.86-95,19.3-130.44-13.37h0a113.91,113.91,0,0,1-33.17-54l-2.18-8.06-8.35-.12c-3,0-6.07,0-9,0h-3l-31.85,0,2.77,13.33a163.14,163.14,0,0,0,32.66,69.57h0c1.89,2.34,4,4.76,5.93,7h0Zm-30.2-81.58h0q1.15,5.61,2.71,11.07A151.08,151.08,0,0,0,1002.83,632c1.74,2.16,3.57,4.25,5.4,6.34h0c.92,1,1.84,2.09,2.74,3.14l5.26,5.26,1.11.9c1.73,1.4,3.43,2.83,5.13,4.27h0c3.67,3.1,7.35,6.2,11.27,9a151.2,151.2,0,0,0,153,12.36,151.2,151.2,0,0,1-153-12.36c-3.92-2.75-7.6-5.85-11.27-9-1.7-1.44-3.4-2.87-5.13-4.27l-1.11-.9-5.26-5.26c-.9-1.05-1.82-2.1-2.74-3.14-1.83-2.09-3.66-4.18-5.4-6.34A152,152,0,0,1,972.38,567.07Zm251.38,33.27A130.51,130.51,0,0,0,1238,567.09h0A130.51,130.51,0,0,1,1223.76,600.34Z"/><path class="cls-2" d="M1276.8,648.65l.28.32,6,6,1.55,1.25h0c1.38,1.12,2.88,2.39,4.47,3.73h0c3.84,3.25,8.19,6.91,12.52,10h0a162.08,162.08,0,0,0,198.87-9.57h0c27-23.23,44.49-52.46,52.63-87h0c.22-.92.44-2,.62-2.82h0c.07-.35.14-.67.19-.93l2.87-13.34-53-.19-2.25,8.14c-8,29.1-24.91,52-50.5,67.51-41.17,24.86-95,19.3-130.44-13.37h0a113.91,113.91,0,0,1-33.17-54l-2.17-8.06-8.36-.12c-3,0-6.06,0-9,0h-3L1233,556l2.78,13.33a163.24,163.24,0,0,0,32.65,69.57h0c1.88,2.34,4,4.76,5.92,7h0C1275.23,646.84,1276.06,647.78,1276.8,648.65Zm-30.2-81.58h0q1.17,5.61,2.71,11.07A151.25,151.25,0,0,0,1277.05,632c1.74,2.16,3.57,4.25,5.41,6.34h0c.91,1,1.83,2.09,2.73,3.14l5.26,5.26,1.12.9c1.72,1.4,3.42,2.83,5.13,4.27h0c3.67,3.1,7.34,6.2,11.26,9a151.22,151.22,0,0,0,153,12.36,151.22,151.22,0,0,1-153-12.36c-3.92-2.75-7.59-5.85-11.26-9-1.71-1.44-3.41-2.87-5.13-4.27l-1.12-.9-5.26-5.26c-.9-1.05-1.82-2.1-2.73-3.14-1.83-2.09-3.67-4.18-5.41-6.34A152.21,152.21,0,0,1,1246.6,567.07Zm252.56,31.3a131.83,131.83,0,0,0,13-31.28h0A131.83,131.83,0,0,1,1499.16,598.37Z"/><path class="cls-2" d="M1548.82,648.65l.27.32,6,6,1.55,1.25h0c1.38,1.12,2.89,2.39,4.48,3.73h0c3.84,3.25,8.19,6.91,12.52,10h0a162.08,162.08,0,0,0,198.87-9.57h0c27-23.23,44.49-52.46,52.63-87h0c.22-.92.44-2,.62-2.82h0c.07-.35.14-.67.2-.93l2.87-13.34-53-.19-2.26,8.14c-8,29.1-24.91,52-50.5,67.51-41.17,24.86-95,19.3-130.44-13.37h0a113.91,113.91,0,0,1-33.17-54l-2.17-8.06-8.35-.12c-3,0-6.07,0-9,0h-3L1505,556l2.78,13.33a163.24,163.24,0,0,0,32.65,69.57h0c1.88,2.34,4,4.76,5.92,7h0C1547.24,646.84,1548.07,647.78,1548.82,648.65Zm-30.21-81.58h0q1.17,5.61,2.72,11.07A151.06,151.06,0,0,0,1549.06,632c1.74,2.16,3.58,4.25,5.41,6.34h0c.91,1,1.83,2.09,2.73,3.14l5.26,5.26,1.12.9c1.72,1.4,3.43,2.83,5.13,4.27h0c3.67,3.1,7.34,6.2,11.26,9a151.22,151.22,0,0,0,153,12.36,151.22,151.22,0,0,1-153-12.36c-3.92-2.75-7.59-5.85-11.26-9-1.7-1.44-3.41-2.87-5.13-4.27l-1.12-.9-5.26-5.26c-.9-1.05-1.81-2.1-2.73-3.14-1.83-2.09-3.67-4.18-5.41-6.34A152.21,152.21,0,0,1,1518.61,567.07Zm252.1,32.09a131.52,131.52,0,0,0,13.5-32.07h0A131.52,131.52,0,0,1,1770.71,599.16Z"/><path class="cls-2" d="M728.91,1484.66l.27.31,6,6,1.55,1.25h0c1.39,1.13,2.89,2.4,4.48,3.74h0c3.85,3.24,8.19,6.9,12.53,9.94h0a162.06,162.06,0,0,0,198.87-9.57h0c27-23.23,44.49-52.46,52.63-87h0c.21-.93.43-2,.61-2.83.08-.35.14-.67.2-.93l2.87-13.34-53-.18-2.25,8.14c-8,29.09-24.92,52-50.51,67.5-41.17,24.86-95,19.3-130.44-13.36h0a113.85,113.85,0,0,1-33.17-54l-2.18-8.07-8.35-.11c-3,0-6.07,0-9,0h-3l-31.85,0,2.77,13.32a163.14,163.14,0,0,0,32.66,69.57h0c1.89,2.35,4,4.76,5.92,6.95h0Zm-30.2-81.58h0q1.15,5.6,2.71,11.06A151.22,151.22,0,0,0,729.15,1468c1.75,2.16,3.58,4.25,5.41,6.34l2.74,3.14,5.26,5.26,1.11.9c1.73,1.4,3.43,2.84,5.13,4.27h0c3.67,3.1,7.35,6.2,11.27,8.95a151.18,151.18,0,0,0,153,12.36,151.2,151.2,0,0,1-153-12.36c-3.92-2.75-7.6-5.85-11.27-8.95-1.7-1.43-3.4-2.87-5.13-4.27l-1.11-.9-5.26-5.26c-.9-1-1.82-2.09-2.74-3.14-1.83-2.09-3.66-4.18-5.41-6.34A152.09,152.09,0,0,1,698.71,1403.08Zm250.89,34.06a130.18,130.18,0,0,0,14.7-34.05h0A130.18,130.18,0,0,1,949.6,1437.14Z"/><path class="cls-2" d="M1002.58,1484.66l.27.31,6,6,1.55,1.25h0c1.38,1.13,2.88,2.39,4.47,3.73h0c3.85,3.24,8.19,6.9,12.53,9.94h0a162.06,162.06,0,0,0,198.87-9.57h0c27-23.23,44.49-52.46,52.63-87h0c.21-.92.43-2,.61-2.83h0c.08-.35.14-.67.2-.93l2.87-13.34-53-.18-2.25,8.14c-8,29.09-24.91,52-50.51,67.5-41.17,24.86-95,19.3-130.44-13.36h0a113.93,113.93,0,0,1-33.17-54l-2.18-8.07-8.35-.11c-3,0-6.07,0-9,0h-3l-31.85,0,2.77,13.32a163.14,163.14,0,0,0,32.66,69.57h0c1.89,2.35,4,4.76,5.93,6.95h0C1001,1482.84,1001.83,1483.79,1002.58,1484.66Zm-30.2-81.58h0q1.15,5.6,2.71,11.06a151.08,151.08,0,0,0,27.74,53.83c1.74,2.16,3.57,4.25,5.4,6.34h0c.92,1,1.84,2.09,2.74,3.14l5.26,5.26,1.11.9c1.73,1.4,3.43,2.84,5.13,4.27h0c3.67,3.1,7.35,6.2,11.27,8.95a151.18,151.18,0,0,0,153,12.36,151.2,151.2,0,0,1-153-12.36c-3.92-2.75-7.6-5.85-11.27-8.95-1.7-1.43-3.4-2.87-5.13-4.27l-1.11-.9-5.26-5.26c-.9-1-1.82-2.09-2.74-3.14-1.83-2.09-3.66-4.18-5.4-6.34A152,152,0,0,1,972.38,1403.08Zm251.38,33.26a130.36,130.36,0,0,0,14.22-33.25h0A130.36,130.36,0,0,1,1223.76,1436.34Z"/><path class="cls-2" d="M1276.8,1484.66l.28.31,6,6,1.55,1.25h0c1.38,1.13,2.88,2.39,4.47,3.73h0c3.84,3.24,8.19,6.9,12.52,9.94h0a162.06,162.06,0,0,0,198.87-9.57h0c27-23.23,44.49-52.46,52.63-87h0c.22-.92.44-2,.62-2.83h0c.07-.35.14-.67.19-.93l2.87-13.34-53-.18-2.25,8.14c-8,29.09-24.91,52-50.5,67.5-41.17,24.86-95,19.3-130.44-13.36h0a113.93,113.93,0,0,1-33.17-54l-2.17-8.07-8.36-.11c-3,0-6.06,0-9,0h-3l-31.85,0,2.78,13.32a163.24,163.24,0,0,0,32.65,69.57h0c1.88,2.35,4,4.76,5.92,6.95h0C1275.23,1482.84,1276.06,1483.79,1276.8,1484.66Zm-30.2-81.58h0q1.17,5.6,2.71,11.06a151.25,151.25,0,0,0,27.74,53.83c1.74,2.16,3.57,4.25,5.41,6.34h0c.91,1,1.83,2.09,2.73,3.14l5.26,5.26,1.12.9c1.72,1.4,3.42,2.84,5.13,4.27h0c3.67,3.1,7.34,6.2,11.26,8.95a151.19,151.19,0,0,0,153,12.36,151.22,151.22,0,0,1-153-12.36c-3.92-2.75-7.59-5.85-11.26-8.95-1.71-1.43-3.41-2.87-5.13-4.27l-1.12-.9-5.26-5.26c-.9-1-1.82-2.09-2.73-3.14-1.83-2.09-3.67-4.18-5.41-6.34A152.23,152.23,0,0,1,1246.6,1403.08Zm252.56,31.3a132.08,132.08,0,0,0,13-31.29h0A132.08,132.08,0,0,1,1499.16,1434.38Z"/><path class="cls-2" d="M1548.82,1484.66l.27.31,6,6,1.55,1.25h0c1.38,1.13,2.89,2.39,4.48,3.73h0c3.84,3.24,8.19,6.9,12.52,9.94h0a162.06,162.06,0,0,0,198.87-9.57h0c27-23.23,44.49-52.46,52.63-87h0c.22-.92.44-2,.62-2.83h0c.07-.35.14-.67.2-.93l2.87-13.34-53-.18-2.26,8.14c-8,29.09-24.91,52-50.5,67.5-41.17,24.86-95,19.3-130.44-13.36h0a113.93,113.93,0,0,1-33.17-54l-2.17-8.07-8.35-.11c-3,0-6.07,0-9,0h-3l-31.85,0,2.78,13.32a163.24,163.24,0,0,0,32.65,69.57h0c1.88,2.35,4,4.76,5.92,6.95h0Zm-30.21-81.58h0q1.17,5.6,2.72,11.06a151.06,151.06,0,0,0,27.73,53.83c1.74,2.16,3.58,4.25,5.41,6.34h0c.91,1,1.83,2.09,2.73,3.14l5.26,5.26,1.12.9c1.72,1.4,3.43,2.84,5.13,4.27h0c3.67,3.1,7.34,6.2,11.26,8.95a151.19,151.19,0,0,0,153,12.36,151.22,151.22,0,0,1-153-12.36c-3.92-2.75-7.59-5.85-11.26-8.95-1.7-1.43-3.41-2.87-5.13-4.27l-1.12-.9-5.26-5.26c-.9-1-1.81-2.09-2.73-3.14-1.83-2.09-3.67-4.18-5.41-6.34A152.23,152.23,0,0,1,1518.61,1403.08Zm252.1,32.08a131.35,131.35,0,0,0,13.5-32.07h0A131.35,131.35,0,0,1,1770.71,1435.16Z"/><path class="cls-2" d="M180.36,92.47l.28.31,6,6,1.55,1.24h0c1.38,1.13,2.89,2.39,4.47,3.73h0c3.84,3.24,8.19,6.9,12.52,9.94h0A162.06,162.06,0,0,0,404,104.12h0c27-23.23,44.49-52.46,52.63-87h0c.22-.93.44-2,.62-2.83h0c.07-.35.14-.67.19-.93L460.35,0l-53-.18L405.1,8c-8.05,29.1-24.91,52-50.5,67.51-41.17,24.86-95,19.3-130.45-13.36h0A113.91,113.91,0,0,1,191,8.06L188.81,0l-8.36-.11c-3,0-6.06,0-9,0h-3l-31.85,0,2.77,13.33A163.37,163.37,0,0,0,172,82.71h0c1.88,2.34,4,4.76,5.92,7h0C178.79,90.65,179.62,91.6,180.36,92.47Zm-30.2-81.58h0q1.17,5.59,2.71,11.06a151.25,151.25,0,0,0,27.74,53.83c1.74,2.16,3.57,4.25,5.41,6.34h0c.91,1,1.83,2.09,2.73,3.14L194,90.52l1.12.9c1.72,1.4,3.42,2.84,5.12,4.27h0c3.68,3.1,7.35,6.2,11.27,9a151.19,151.19,0,0,0,153,12.36,151.22,151.22,0,0,1-153-12.36c-3.92-2.75-7.59-5.85-11.26-9-1.71-1.43-3.41-2.87-5.13-4.27l-1.12-.9-5.26-5.26c-.9-1.05-1.82-2.1-2.73-3.14-1.84-2.09-3.67-4.18-5.41-6.34A152.23,152.23,0,0,1,150.16,10.89ZM401.55,44.15A130.69,130.69,0,0,0,415.76,10.9h0A130.69,130.69,0,0,1,401.55,44.15Z"/><path class="cls-2" d="M452.38,92.46l.27.32,6,6,1.55,1.25h0c1.38,1.12,2.89,2.39,4.48,3.73h0c3.84,3.24,8.19,6.9,12.52,9.94h0a162.08,162.08,0,0,0,198.87-9.57h0c27-23.23,44.49-52.46,52.63-87h0c.22-.93.44-2,.62-2.83h0c.07-.35.14-.67.19-.93L732.36,0l-53-.18L677.11,8c-8.05,29.1-24.91,52-50.5,67.51-41.17,24.86-95,19.3-130.44-13.36h0A113.91,113.91,0,0,1,463,8.06L460.82,0l-8.35-.11c-3,0-6.07,0-9,0h-3l-31.85,0,2.78,13.33A163.24,163.24,0,0,0,444,82.71h0c1.88,2.34,4,4.76,5.92,7h0ZM422.17,10.89h0q1.17,5.59,2.72,11.06a151.06,151.06,0,0,0,27.73,53.83c1.74,2.16,3.58,4.25,5.41,6.34h0c.91,1,1.83,2.09,2.73,3.14L466,90.52l1.12.9c1.72,1.4,3.43,2.83,5.13,4.27h0c3.67,3.1,7.34,6.2,11.26,9a151.22,151.22,0,0,0,153,12.36,151.22,151.22,0,0,1-153-12.36c-3.92-2.75-7.59-5.85-11.26-9-1.7-1.44-3.41-2.87-5.13-4.27l-1.12-.9-5.25-5.26c-.91-1.05-1.82-2.1-2.74-3.14-1.83-2.09-3.67-4.18-5.41-6.34A152.23,152.23,0,0,1,422.17,10.89ZM674.27,43a131.52,131.52,0,0,0,13.5-32.07h0A131.52,131.52,0,0,1,674.27,43Z"/><path class="cls-2" d="M728.66,92.46l.28.32,6,6,1.55,1.25h0c1.38,1.12,2.89,2.39,4.47,3.73h0c3.84,3.24,8.19,6.9,12.52,9.94h0a162.08,162.08,0,0,0,198.87-9.57h0c27-23.23,44.49-52.46,52.63-87h0c.22-.93.44-2,.62-2.83h0c.07-.35.14-.67.19-.93L1008.65,0l-53-.18L953.4,8c-8,29.1-24.91,52-50.5,67.51-41.17,24.86-95,19.3-130.44-13.36h0a113.91,113.91,0,0,1-33.17-54L737.11,0l-8.36-.11c-3,0-6.06,0-9,0h-3l-31.85,0,2.78,13.33a163.24,163.24,0,0,0,32.65,69.57h0c1.88,2.34,4,4.76,5.92,7h0C727.09,90.65,727.92,91.6,728.66,92.46Zm-30.2-81.57h0q1.17,5.59,2.71,11.06a151.25,151.25,0,0,0,27.74,53.83c1.74,2.16,3.57,4.25,5.41,6.34h0c.91,1,1.83,2.09,2.73,3.14l5.26,5.26,1.12.9c1.72,1.4,3.42,2.83,5.12,4.27h0c3.68,3.1,7.35,6.2,11.27,9a151.22,151.22,0,0,0,153,12.36,151.22,151.22,0,0,1-153-12.36c-3.92-2.75-7.59-5.85-11.27-9-1.7-1.44-3.4-2.87-5.12-4.27l-1.12-.9-5.26-5.26c-.9-1.05-1.82-2.1-2.73-3.14-1.83-2.09-3.67-4.18-5.41-6.34A152.23,152.23,0,0,1,698.46,10.89ZM951,42.19a132.08,132.08,0,0,0,13-31.29h0A132.08,132.08,0,0,1,951,42.19Z"/><path class="cls-2" d="M180.36,928.47l.28.32,6,6,1.55,1.25h0c1.38,1.12,2.89,2.39,4.47,3.73h0c3.84,3.24,8.19,6.9,12.52,10h0A162.08,162.08,0,0,0,404,940.13h0c27-23.22,44.49-52.46,52.63-87h0c.22-.93.44-2,.62-2.83h0c.07-.35.14-.67.19-.93L460.35,836l-53-.18L405.1,844c-8.05,29.09-24.91,52-50.5,67.5-41.17,24.86-95,19.31-130.45-13.36h0a114,114,0,0,1-33.17-54L188.81,836l-8.36-.11c-3,0-6.06,0-9,0h-3l-31.85,0,2.77,13.33A163.37,163.37,0,0,0,172,918.71h0c1.88,2.34,4,4.76,5.92,6.94h0C178.79,926.66,179.62,927.6,180.36,928.47Zm-30.2-81.58h0q1.17,5.6,2.71,11.06a151.25,151.25,0,0,0,27.74,53.83c1.74,2.17,3.57,4.25,5.41,6.34h0c.91,1,1.83,2.09,2.73,3.14l5.26,5.26,1.12.9c1.72,1.4,3.42,2.84,5.12,4.27h0c3.68,3.1,7.35,6.2,11.27,8.95a151.17,151.17,0,0,0,153,12.36,151.17,151.17,0,0,1-153-12.36c-3.92-2.75-7.59-5.85-11.26-8.95-1.71-1.43-3.41-2.87-5.13-4.27l-1.12-.9-5.26-5.26c-.9-1-1.82-2.09-2.73-3.14-1.84-2.09-3.67-4.17-5.41-6.34A152.17,152.17,0,0,1,150.16,846.89Zm251.39,33.26a130.69,130.69,0,0,0,14.21-33.25h0A130.69,130.69,0,0,1,401.55,880.15Z"/><path class="cls-2" d="M452.38,928.47l.27.32,6,6,1.55,1.25h0c1.38,1.12,2.89,2.39,4.48,3.73h0c3.84,3.24,8.19,6.9,12.52,9.94h0a162.08,162.08,0,0,0,198.87-9.57h0c27-23.23,44.49-52.46,52.63-87h0c.22-.93.44-2,.62-2.83h0c.07-.35.14-.67.19-.93L732.36,836l-53-.18L677.11,844c-8.05,29.1-24.91,52-50.5,67.51-41.17,24.86-95,19.31-130.44-13.36h0a114,114,0,0,1-33.17-54L460.82,836l-8.35-.11c-3,0-6.07,0-9,0h-3l-31.85,0,2.78,13.33A163.24,163.24,0,0,0,444,918.71h0c1.88,2.35,4,4.76,5.92,6.95h0Zm-30.21-81.58h0q1.17,5.6,2.72,11.06a151.06,151.06,0,0,0,27.73,53.83c1.74,2.16,3.58,4.25,5.41,6.34h0c.91,1,1.83,2.09,2.73,3.14l5.26,5.26,1.12.9c1.72,1.4,3.43,2.84,5.13,4.27h0c3.67,3.1,7.34,6.2,11.26,8.95a151.17,151.17,0,0,0,153,12.36,151.17,151.17,0,0,1-153-12.36c-3.92-2.75-7.59-5.85-11.26-8.95-1.7-1.43-3.41-2.87-5.13-4.27l-1.12-.9-5.25-5.26L458,918.12c-1.83-2.09-3.67-4.18-5.41-6.34A152.23,152.23,0,0,1,422.17,846.89ZM674.27,879a131.59,131.59,0,0,0,13.5-32.08h0A131.59,131.59,0,0,1,674.27,879Z"/><path class="cls-2" d="M728.66,928.47l.28.32,6,6,1.55,1.25h0c1.38,1.12,2.89,2.39,4.47,3.73h0c3.84,3.24,8.19,6.9,12.52,9.94h0a162.08,162.08,0,0,0,198.87-9.57h0c27-23.23,44.49-52.46,52.63-87h0c.22-.93.44-2,.62-2.83h0c.07-.35.14-.67.19-.93l2.87-13.34-53-.18L953.4,844c-8,29.1-24.91,52-50.5,67.51-41.17,24.86-95,19.31-130.44-13.36h0a114,114,0,0,1-33.17-54L737.11,836l-8.36-.11c-3,0-6.06,0-9,0h-3l-31.85,0,2.78,13.33a163.24,163.24,0,0,0,32.65,69.57h0c1.88,2.35,4,4.76,5.92,6.95h0C727.09,926.65,727.92,927.6,728.66,928.47Zm-30.2-81.58h0q1.17,5.6,2.71,11.06a151.25,151.25,0,0,0,27.74,53.83c1.74,2.16,3.57,4.25,5.41,6.34h0c.91,1,1.83,2.09,2.73,3.14l5.26,5.26,1.12.9c1.72,1.4,3.42,2.84,5.12,4.27h0c3.68,3.1,7.35,6.2,11.27,8.95a151.17,151.17,0,0,0,153,12.36,151.17,151.17,0,0,1-153-12.36c-3.92-2.75-7.59-5.85-11.27-8.95-1.7-1.43-3.4-2.87-5.12-4.27l-1.12-.9-5.26-5.26c-.9-1-1.82-2.09-2.73-3.14-1.83-2.09-3.67-4.18-5.41-6.34A152.23,152.23,0,0,1,698.46,846.89ZM951,878.19a132.08,132.08,0,0,0,13-31.29h0A132.08,132.08,0,0,1,951,878.19Z"/><path class="cls-2" d="M1016.91,92.46l.27.32,6,6,1.54,1.25h0c1.39,1.12,2.89,2.39,4.48,3.73h0c3.85,3.24,8.19,6.9,12.53,9.94h0a162.08,162.08,0,0,0,198.87-9.57h0c27-23.23,44.49-52.46,52.63-87h0c.21-.93.43-2,.61-2.83h0c.08-.35.14-.67.2-.93L1296.9,0l-53-.18L1241.65,8c-8.05,29.1-24.92,52-50.51,67.51-41.17,24.86-95,19.3-130.44-13.36h0a113.83,113.83,0,0,1-33.17-54L1025.35,0,1017-.11c-3,0-6.07,0-9,0h-3l-31.85,0,2.77,13.33a163.14,163.14,0,0,0,32.66,69.57h0c1.89,2.34,4,4.76,5.93,7h0Zm-30.2-81.57h0q1.15,5.59,2.71,11.06a151.08,151.08,0,0,0,27.74,53.83c1.74,2.16,3.57,4.25,5.4,6.34h0c.92,1,1.83,2.09,2.74,3.14l5.26,5.26,1.11.9c1.73,1.4,3.43,2.83,5.13,4.27h0c3.67,3.1,7.35,6.2,11.27,9a151.2,151.2,0,0,0,153,12.36,151.2,151.2,0,0,1-153-12.36c-3.92-2.75-7.6-5.85-11.27-9-1.7-1.44-3.4-2.87-5.13-4.27l-1.11-.9-5.26-5.26c-.9-1.05-1.82-2.1-2.74-3.14-1.83-2.09-3.66-4.18-5.4-6.34A152,152,0,0,1,986.71,10.89ZM1238.8,43a131.13,131.13,0,0,0,13.5-32.07h0A131.13,131.13,0,0,1,1238.8,43Z"/><path class="cls-2" d="M1290.58,92.46l.27.32,6,6,1.54,1.25h0c1.38,1.12,2.88,2.39,4.47,3.73h0c3.85,3.24,8.19,6.9,12.53,9.94h0a162.08,162.08,0,0,0,198.87-9.57h0c27-23.23,44.49-52.46,52.63-87h0c.21-.93.43-2,.61-2.83h0c.08-.35.14-.67.2-.93L1570.57,0l-53-.18L1515.32,8c-8,29.1-24.91,52-50.51,67.51-41.17,24.86-95,19.3-130.44-13.36h0a113.83,113.83,0,0,1-33.17-54L1299,0l-8.35-.11c-3,0-6.07,0-9,0h-3l-31.85,0,2.77,13.33a163.14,163.14,0,0,0,32.66,69.57h0c1.89,2.34,4,4.76,5.93,7h0Zm-30.2-81.57h0q1.15,5.59,2.71,11.06a151.08,151.08,0,0,0,27.74,53.83c1.74,2.16,3.57,4.25,5.4,6.34h0c.92,1,1.84,2.09,2.74,3.14l5.26,5.26,1.11.9c1.73,1.4,3.43,2.83,5.13,4.27h0c3.67,3.1,7.35,6.2,11.27,9a151.2,151.2,0,0,0,153,12.36,151.2,151.2,0,0,1-153-12.36c-3.92-2.75-7.6-5.85-11.27-9-1.7-1.44-3.4-2.87-5.13-4.27l-1.11-.9L1299,85.26c-.9-1.05-1.82-2.1-2.74-3.14-1.83-2.09-3.66-4.18-5.4-6.34A152,152,0,0,1,1260.38,10.89ZM1512.47,43A131.54,131.54,0,0,0,1526,10.9h0A131.54,131.54,0,0,1,1512.47,43Z"/><path class="cls-2" d="M1564.8,92.47l.28.31,6,6,1.55,1.24h0c1.38,1.13,2.89,2.39,4.47,3.73h0c3.84,3.24,8.19,6.9,12.52,9.94h0a162.06,162.06,0,0,0,198.87-9.57h0c27-23.23,44.49-52.46,52.63-87h0c.22-.93.44-2,.62-2.83h0c.07-.35.14-.67.19-.93L1844.79,0l-53-.18L1789.54,8c-8,29.1-24.91,52-50.5,67.51-41.17,24.86-95,19.3-130.45-13.36h0a113.91,113.91,0,0,1-33.17-54L1573.25,0l-8.36-.11c-3,0-6.06,0-9,0h-3L1521-.19l2.77,13.33a163.37,163.37,0,0,0,32.66,69.57h0c1.88,2.34,4,4.76,5.92,7h0C1563.23,90.65,1564.06,91.6,1564.8,92.47Zm-30.2-81.58h0q1.17,5.59,2.71,11.06a151.25,151.25,0,0,0,27.74,53.83c1.74,2.16,3.57,4.25,5.41,6.34h0c.91,1,1.83,2.09,2.73,3.14l5.26,5.26,1.12.9c1.72,1.4,3.42,2.84,5.12,4.27h0c3.68,3.1,7.35,6.2,11.27,9A151.19,151.19,0,0,0,1749,117a151.22,151.22,0,0,1-153-12.36c-3.92-2.75-7.59-5.85-11.26-9-1.71-1.43-3.41-2.87-5.13-4.27l-1.12-.9-5.26-5.26c-.9-1.05-1.82-2.1-2.73-3.14-1.84-2.09-3.67-4.18-5.41-6.34A152.23,152.23,0,0,1,1534.6,10.89ZM1786,44.15A130.69,130.69,0,0,0,1800.2,10.9h0A130.69,130.69,0,0,1,1786,44.15Z"/><path class="cls-2" d="M1836.82,92.46l.27.32,6,6,1.55,1.25h0c1.38,1.12,2.89,2.39,4.48,3.73h0c3.84,3.24,8.19,6.9,12.52,9.94h0a162.08,162.08,0,0,0,198.87-9.57h0c27-23.23,44.49-52.46,52.63-87h0c.22-.93.44-2,.62-2.83h0c.07-.35.14-.67.2-.93L2116.81,0l-53-.18L2061.55,8c-8.05,29.1-24.91,52-50.5,67.51-41.17,24.86-95,19.3-130.44-13.36h0a113.91,113.91,0,0,1-33.17-54L1845.26,0l-8.35-.11c-3,0-6.07,0-9,0h-3L1793-.19l2.78,13.33a163.24,163.24,0,0,0,32.65,69.57h0c1.88,2.34,4,4.76,5.92,7h0Zm-30.21-81.57h0q1.17,5.59,2.72,11.06a151.06,151.06,0,0,0,27.73,53.83c1.74,2.16,3.58,4.25,5.41,6.34h0c.91,1,1.83,2.09,2.73,3.14l5.26,5.26,1.12.9c1.72,1.4,3.43,2.83,5.13,4.27h0c3.67,3.1,7.34,6.2,11.26,9A151.22,151.22,0,0,0,2021,117a151.22,151.22,0,0,1-153-12.36c-3.92-2.75-7.59-5.85-11.26-9-1.7-1.44-3.41-2.87-5.13-4.27l-1.12-.9-5.26-5.26c-.9-1.05-1.81-2.1-2.73-3.14-1.83-2.09-3.67-4.18-5.41-6.34A152.23,152.23,0,0,1,1806.61,10.89ZM2058.71,43a131.52,131.52,0,0,0,13.5-32.07h0A131.52,131.52,0,0,1,2058.71,43Z"/><path class="cls-2" d="M1016.91,928.47l.27.32,6,6,1.54,1.25h0c1.39,1.12,2.89,2.39,4.48,3.73h0c3.85,3.24,8.19,6.9,12.53,9.94h0a162.08,162.08,0,0,0,198.87-9.57h0c27-23.23,44.49-52.46,52.63-87h0c.21-.93.43-2,.61-2.83h0c.08-.35.14-.67.2-.93L1296.9,836l-53-.18-2.25,8.13c-8.05,29.1-24.92,52-50.51,67.51-41.17,24.86-95,19.31-130.44-13.36h0a113.91,113.91,0,0,1-33.17-54l-2.18-8.06-8.35-.11c-3,0-6.07,0-9,0h-3l-31.85,0,2.77,13.33a163.14,163.14,0,0,0,32.66,69.57h0c1.89,2.35,4,4.76,5.93,6.95h0C1015.34,926.65,1016.16,927.6,1016.91,928.47Zm-30.2-81.58h0q1.15,5.6,2.71,11.06a151.08,151.08,0,0,0,27.74,53.83c1.74,2.16,3.57,4.25,5.4,6.34h0l2.74,3.14,5.26,5.26,1.11.9c1.73,1.4,3.43,2.84,5.13,4.27h0c3.67,3.1,7.35,6.2,11.27,8.95a151.15,151.15,0,0,0,153,12.36,151.15,151.15,0,0,1-153-12.36c-3.92-2.75-7.6-5.85-11.27-8.95-1.7-1.43-3.4-2.87-5.13-4.27l-1.11-.9-5.26-5.26c-.9-1-1.82-2.09-2.74-3.14-1.83-2.09-3.66-4.18-5.4-6.34A152,152,0,0,1,986.71,846.89ZM1238.8,879a131.2,131.2,0,0,0,13.5-32.08h0A131.2,131.2,0,0,1,1238.8,879Z"/><path class="cls-2" d="M1290.58,928.47l.27.32,6,6,1.54,1.25h0c1.38,1.12,2.88,2.39,4.47,3.73h0c3.85,3.24,8.19,6.9,12.53,9.94h0a162.08,162.08,0,0,0,198.87-9.57h0c27-23.23,44.49-52.46,52.63-87h0c.21-.93.43-2,.61-2.83h0c.08-.35.14-.67.2-.93l2.87-13.34-53-.18-2.25,8.13c-8,29.1-24.91,52-50.51,67.51-41.17,24.86-95,19.31-130.44-13.36h0a113.91,113.91,0,0,1-33.17-54L1299,836l-8.35-.11c-3,0-6.07,0-9,0h-3l-31.85,0,2.77,13.33a163.14,163.14,0,0,0,32.66,69.57h0c1.89,2.35,4,4.76,5.93,6.95h0C1289,926.65,1289.83,927.6,1290.58,928.47Zm-30.2-81.58h0q1.15,5.6,2.71,11.06a151.08,151.08,0,0,0,27.74,53.83c1.74,2.16,3.57,4.25,5.4,6.34h0c.92,1,1.84,2.09,2.74,3.14l5.26,5.26,1.11.9c1.73,1.4,3.43,2.84,5.13,4.27h0c3.67,3.1,7.35,6.2,11.27,8.95a151.15,151.15,0,0,0,153,12.36,151.15,151.15,0,0,1-153-12.36c-3.92-2.75-7.6-5.85-11.27-8.95-1.7-1.43-3.4-2.87-5.13-4.27l-1.11-.9-5.26-5.26c-.9-1-1.82-2.09-2.74-3.14-1.83-2.09-3.66-4.18-5.4-6.34A152,152,0,0,1,1260.38,846.89ZM1512.47,879A131.61,131.61,0,0,0,1526,846.9h0A131.61,131.61,0,0,1,1512.47,879Z"/><path class="cls-2" d="M1564.8,928.47l.28.32,6,6,1.55,1.25h0c1.38,1.12,2.89,2.39,4.47,3.73h0c3.84,3.24,8.19,6.9,12.52,10h0a162.08,162.08,0,0,0,198.87-9.57h0c27-23.22,44.49-52.46,52.63-87h0c.22-.93.44-2,.62-2.83h0c.07-.35.14-.67.19-.93l2.87-13.34-53-.18-2.25,8.14c-8,29.09-24.91,52-50.5,67.5-41.17,24.86-95,19.31-130.45-13.36h0a114,114,0,0,1-33.17-54l-2.17-8.06-8.36-.11c-3,0-6.06,0-9,0h-3l-31.85,0,2.77,13.33a163.37,163.37,0,0,0,32.66,69.57h0c1.88,2.34,4,4.76,5.92,6.94h0C1563.23,926.66,1564.06,927.6,1564.8,928.47Zm-30.2-81.58h0q1.17,5.6,2.71,11.06a151.25,151.25,0,0,0,27.74,53.83c1.74,2.17,3.57,4.25,5.41,6.34h0c.91,1,1.83,2.09,2.73,3.14l5.26,5.26,1.12.9c1.72,1.4,3.42,2.84,5.12,4.27h0c3.68,3.1,7.35,6.2,11.27,8.95A151.17,151.17,0,0,0,1749,953a151.17,151.17,0,0,1-153-12.36c-3.92-2.75-7.59-5.85-11.26-8.95-1.71-1.43-3.41-2.87-5.13-4.27l-1.12-.9-5.26-5.26c-.9-1-1.82-2.09-2.73-3.14-1.84-2.09-3.67-4.17-5.41-6.34A152.17,152.17,0,0,1,1534.6,846.89ZM1786,880.15a130.69,130.69,0,0,0,14.21-33.25h0A130.69,130.69,0,0,1,1786,880.15Z"/><path class="cls-2" d="M1836.82,928.47l.27.32,6,6,1.55,1.25h0c1.38,1.12,2.89,2.39,4.48,3.73h0c3.84,3.24,8.19,6.9,12.52,9.94h0a162.08,162.08,0,0,0,198.87-9.57h0c27-23.23,44.49-52.46,52.63-87h0c.22-.93.44-2,.62-2.83h0c.07-.35.14-.67.2-.93l2.87-13.34-53-.18-2.26,8.13c-8.05,29.1-24.91,52-50.5,67.51-41.17,24.86-95,19.31-130.44-13.36h0a114,114,0,0,1-33.17-54l-2.17-8.06-8.35-.11c-3,0-6.07,0-9,0h-3l-31.85,0,2.78,13.33a163.24,163.24,0,0,0,32.65,69.57h0c1.88,2.35,4,4.76,5.92,6.95h0Zm-30.21-81.58h0q1.17,5.6,2.72,11.06a151.06,151.06,0,0,0,27.73,53.83c1.74,2.16,3.58,4.25,5.41,6.34h0c.91,1,1.83,2.09,2.73,3.14l5.26,5.26,1.12.9c1.72,1.4,3.43,2.84,5.13,4.27h0c3.67,3.1,7.34,6.2,11.26,8.95A151.17,151.17,0,0,0,2021,953a151.17,151.17,0,0,1-153-12.36c-3.92-2.75-7.59-5.85-11.26-8.95-1.7-1.43-3.41-2.87-5.13-4.27l-1.12-.9-5.26-5.26c-.9-1-1.81-2.09-2.73-3.14-1.83-2.09-3.67-4.18-5.41-6.34A152.23,152.23,0,0,1,1806.61,846.89ZM2058.71,879a131.59,131.59,0,0,0,13.5-32.08h0A131.59,131.59,0,0,1,2058.71,879Z"/><path class="cls-2" d="M861.91,232.9l.27.31,6,6,1.54,1.25h0c1.39,1.12,2.89,2.39,4.48,3.73h0c3.85,3.24,8.19,6.9,12.53,9.94h0a162.08,162.08,0,0,0,198.87-9.57h0c27-23.23,44.49-52.46,52.63-87h0c.21-.93.43-2,.61-2.83h0c.08-.35.14-.67.2-.93l2.87-13.34-53-.18-2.25,8.13c-8.05,29.1-24.92,52-50.51,67.51-41.17,24.86-95,19.3-130.44-13.36h0a113.83,113.83,0,0,1-33.17-54l-2.18-8.06-8.35-.11c-3,0-6.07,0-9,0h-3l-31.85,0,2.77,13.33a163.14,163.14,0,0,0,32.66,69.57h0c1.89,2.34,4,4.76,5.93,7h0C860.34,231.08,861.16,232,861.91,232.9Zm-30.2-81.58h0q1.15,5.6,2.71,11.06a151.08,151.08,0,0,0,27.74,53.83c1.74,2.16,3.57,4.25,5.4,6.34h0c.92,1,1.83,2.09,2.74,3.14l5.26,5.26,1.11.9c1.73,1.4,3.43,2.83,5.13,4.27h0c3.67,3.1,7.35,6.2,11.27,8.95a151.2,151.2,0,0,0,153,12.36,151.2,151.2,0,0,1-153-12.36c-3.92-2.75-7.6-5.85-11.27-8.95-1.7-1.44-3.4-2.87-5.13-4.27l-1.11-.9-5.26-5.26c-.9-1.05-1.82-2.1-2.74-3.14-1.83-2.09-3.66-4.18-5.4-6.34A152,152,0,0,1,831.71,151.32Zm252.55,31.3a131.25,131.25,0,0,0,13-31.29h0A131.25,131.25,0,0,1,1084.26,182.62Z"/><path class="cls-2" d="M43.8,232.9l.28.31,6,6,1.55,1.25h0c1.38,1.12,2.89,2.39,4.47,3.73h0c3.84,3.24,8.19,6.9,12.52,9.94h0a162.08,162.08,0,0,0,198.87-9.57h0c27-23.23,44.49-52.46,52.63-87h0c.22-.93.44-2,.62-2.83h0c.07-.35.14-.67.19-.93l2.87-13.34-53-.18-2.25,8.13c-8.05,29.1-24.91,52-50.5,67.51-41.17,24.86-95,19.3-130.44-13.36h0a113.91,113.91,0,0,1-33.17-54l-2.17-8.06-8.36-.11c-3,0-6.06,0-9,0h-3L0,140.24l2.77,13.33a163.37,163.37,0,0,0,32.66,69.57h0c1.88,2.34,4,4.76,5.92,7h0C42.23,231.08,43.06,232,43.8,232.9ZM13.6,151.32h0q1.17,5.6,2.71,11.06a151.25,151.25,0,0,0,27.74,53.83c1.74,2.16,3.57,4.25,5.41,6.34h0c.91,1,1.83,2.09,2.73,3.14L57.45,231l1.12.9c1.72,1.4,3.42,2.83,5.13,4.27h0c3.67,3.1,7.34,6.2,11.26,8.95a151.22,151.22,0,0,0,153,12.36A151.22,151.22,0,0,1,75,245.07c-3.92-2.75-7.59-5.85-11.26-8.95-1.71-1.44-3.41-2.87-5.13-4.27l-1.12-.9-5.26-5.26c-.9-1.05-1.82-2.1-2.73-3.14-1.83-2.09-3.67-4.18-5.41-6.34A152.23,152.23,0,0,1,13.6,151.32ZM265.69,183.4a131.15,131.15,0,0,0,13.51-32.07h0A131.15,131.15,0,0,1,265.69,183.4Z"/><path class="cls-2" d="M1136.13,232.9l.28.31,6,6,1.55,1.25h0c1.38,1.12,2.89,2.39,4.47,3.73h0c3.84,3.24,8.18,6.9,12.52,9.94h0a162.08,162.08,0,0,0,198.87-9.57h0c27-23.23,44.49-52.46,52.63-87h0c.22-.93.44-2,.62-2.83h0c.07-.35.14-.67.19-.93l2.87-13.34-53-.18-2.25,8.13c-8,29.1-24.91,52-50.51,67.51-41.16,24.86-95,19.3-130.44-13.36h0a113.91,113.91,0,0,1-33.17-54l-2.17-8.06-8.36-.11c-3,0-6.06,0-9,0h-3l-31.85,0,2.77,13.33a163.25,163.25,0,0,0,32.66,69.57h0c1.88,2.34,4,4.76,5.92,7h0C1134.56,231.08,1135.39,232,1136.13,232.9Zm-30.2-81.58h0q1.17,5.6,2.71,11.06a151.08,151.08,0,0,0,27.74,53.83c1.74,2.16,3.57,4.25,5.41,6.34h0c.91,1,1.83,2.09,2.73,3.14l5.26,5.26,1.12.9c1.72,1.4,3.42,2.83,5.12,4.27h0c3.68,3.1,7.35,6.2,11.27,8.95a151.22,151.22,0,0,0,153,12.36,151.22,151.22,0,0,1-153-12.36c-3.92-2.75-7.59-5.85-11.27-8.95-1.7-1.44-3.4-2.87-5.12-4.27l-1.12-.9-5.26-5.26c-.9-1.05-1.82-2.1-2.73-3.14-1.84-2.09-3.67-4.18-5.41-6.34A152.23,152.23,0,0,1,1105.93,151.32ZM1358,183.4a131.15,131.15,0,0,0,13.51-32.07h0A131.15,131.15,0,0,1,1358,183.4Z"/><path class="cls-2" d="M315.82,232.9l.27.31,6,6,1.55,1.25h0c1.38,1.12,2.89,2.39,4.48,3.73h0c3.84,3.24,8.19,6.9,12.52,9.94h0a162.08,162.08,0,0,0,198.87-9.57h0c27-23.23,44.48-52.46,52.62-87h0c.22-.93.44-2,.62-2.83h0c.07-.35.14-.67.2-.93l2.87-13.34-53-.18-2.25,8.13c-8.06,29.1-24.92,52-50.51,67.51-41.17,24.86-95,19.3-130.44-13.36h0a113.91,113.91,0,0,1-33.17-54l-2.17-8.06-8.35-.11c-3,0-6.07,0-9,0h-3l-31.85,0,2.78,13.33a163.14,163.14,0,0,0,32.66,69.57h0c1.88,2.34,4,4.76,5.92,7h0Zm-30.21-81.58h0q1.17,5.6,2.72,11.06a151.22,151.22,0,0,0,27.73,53.83c1.74,2.16,3.58,4.25,5.41,6.34h0c.92,1,1.83,2.09,2.74,3.14l5.25,5.26,1.12.9c1.73,1.4,3.43,2.83,5.13,4.27h0c3.67,3.1,7.34,6.2,11.26,8.95a151.22,151.22,0,0,0,153,12.36,151.22,151.22,0,0,1-153-12.36c-3.92-2.75-7.59-5.85-11.26-8.95-1.7-1.44-3.4-2.87-5.13-4.27l-1.12-.9-5.25-5.26c-.91-1.05-1.82-2.1-2.74-3.14-1.83-2.09-3.67-4.18-5.41-6.34A152.23,152.23,0,0,1,285.61,151.32Zm252.56,31.3a131.25,131.25,0,0,0,13-31.29h0A131.25,131.25,0,0,1,538.17,182.62Z"/><path class="cls-2" d="M1408.15,232.9l.27.31,6,6,1.55,1.25h0c1.38,1.12,2.89,2.39,4.48,3.73h0c3.84,3.24,8.19,6.9,12.52,9.94h0a162.08,162.08,0,0,0,198.87-9.57h0c27-23.23,44.49-52.46,52.63-87h0c.22-.93.44-2,.62-2.83h0c.07-.35.14-.67.2-.93l2.87-13.34-53-.18-2.26,8.13c-8.05,29.1-24.91,52-50.5,67.51-41.17,24.86-95,19.3-130.44-13.36h0a113.91,113.91,0,0,1-33.17-54l-2.17-8.06-8.35-.11c-3,0-6.07,0-9,0h-3l-31.85,0,2.78,13.33a163.24,163.24,0,0,0,32.65,69.57h0c1.88,2.34,4,4.76,5.92,7h0Zm-30.21-81.58h0q1.17,5.6,2.72,11.06a151.06,151.06,0,0,0,27.73,53.83c1.74,2.16,3.58,4.25,5.41,6.34h0c.91,1,1.83,2.09,2.73,3.14l5.26,5.26,1.12.9c1.72,1.4,3.43,2.83,5.13,4.27h0c3.67,3.1,7.34,6.2,11.26,8.95a151.22,151.22,0,0,0,153,12.36,151.22,151.22,0,0,1-153-12.36c-3.92-2.75-7.59-5.85-11.26-8.95-1.7-1.44-3.41-2.87-5.13-4.27l-1.12-.9-5.25-5.26c-.91-1.05-1.82-2.1-2.74-3.14-1.83-2.09-3.67-4.18-5.41-6.34A152.23,152.23,0,0,1,1377.94,151.32Zm252.56,31.3a131.66,131.66,0,0,0,13-31.29h0A131.66,131.66,0,0,1,1630.5,182.62Z"/><path class="cls-2" d="M591.7,232.9l.27.31,6,6,1.55,1.25h0c1.39,1.12,2.89,2.39,4.48,3.73h0c3.85,3.24,8.19,6.9,12.52,9.94h0a162.08,162.08,0,0,0,198.87-9.57h0c27-23.23,44.48-52.46,52.63-87h0c.21-.93.43-2,.61-2.83h0c.07-.35.14-.67.2-.93l2.87-13.34-53-.18-2.25,8.13c-8.05,29.1-24.92,52-50.51,67.51-41.17,24.86-95,19.3-130.44-13.36h0a113.83,113.83,0,0,1-33.17-54l-2.18-8.06-8.35-.11c-3,0-6.07,0-9,0h-3l-31.85,0,2.77,13.33a163.14,163.14,0,0,0,32.66,69.57h0c1.89,2.34,4,4.76,5.93,7h0Zm-30.2-81.58h0q1.15,5.6,2.71,11.06a151.22,151.22,0,0,0,27.73,53.83c1.75,2.16,3.58,4.25,5.41,6.34h0c.92,1,1.83,2.09,2.74,3.14l5.26,5.26,1.11.9c1.73,1.4,3.43,2.83,5.13,4.27h0c3.67,3.1,7.34,6.2,11.27,8.95a151.2,151.2,0,0,0,153,12.36,151.2,151.2,0,0,1-153-12.36c-3.93-2.75-7.6-5.85-11.27-8.95-1.7-1.44-3.4-2.87-5.13-4.27l-1.11-.9-5.26-5.26c-.91-1.05-1.82-2.1-2.74-3.14-1.83-2.09-3.66-4.18-5.41-6.34A152.09,152.09,0,0,1,561.5,151.32Zm251.38,33.26a130.69,130.69,0,0,0,14.21-33.25h0A130.69,130.69,0,0,1,812.88,184.58Z"/><path class="cls-2" d="M1684,232.9l.27.31,6,6,1.55,1.25h0c1.39,1.12,2.89,2.39,4.48,3.73h0c3.85,3.24,8.19,6.9,12.52,9.94h0a162.06,162.06,0,0,0,198.86-9.57h0c27-23.23,44.48-52.46,52.62-87h0c.22-.93.44-2,.62-2.83h0c.07-.35.14-.67.2-.93l2.87-13.34-53-.18-2.25,8.13c-8.06,29.1-24.92,52-50.51,67.51-41.17,24.86-95,19.3-130.44-13.36h0a113.76,113.76,0,0,1-33.17-54l-2.18-8.06-8.35-.11c-3,0-6.07,0-9,0h-3l-31.85,0,2.78,13.33a163.14,163.14,0,0,0,32.66,69.57h0c1.89,2.34,4,4.76,5.92,7h0Zm-30.21-81.58h0q1.17,5.6,2.72,11.06a151.22,151.22,0,0,0,27.73,53.83c1.74,2.16,3.58,4.25,5.41,6.34h0c.92,1,1.83,2.09,2.74,3.14l5.25,5.26,1.12.9c1.73,1.4,3.43,2.83,5.13,4.27h0c3.67,3.1,7.34,6.2,11.26,8.95a151.22,151.22,0,0,0,153,12.36,151.22,151.22,0,0,1-153-12.36c-3.92-2.75-7.59-5.85-11.26-8.95-1.7-1.44-3.4-2.87-5.13-4.27l-1.12-.9-5.25-5.26c-.91-1.05-1.82-2.1-2.74-3.14-1.83-2.09-3.66-4.18-5.41-6.34A152.23,152.23,0,0,1,1653.82,151.32Zm251.39,33.26a130.69,130.69,0,0,0,14.21-33.25h0A130.69,130.69,0,0,1,1905.21,184.58Z"/><path class="cls-2" d="M861.91,1067.47l.27.32,6,6,1.54,1.25h0c1.39,1.12,2.89,2.39,4.48,3.73h0c3.85,3.24,8.19,6.9,12.53,9.94h0a162.08,162.08,0,0,0,198.87-9.57h0c27-23.23,44.49-52.46,52.63-87h0c.21-.92.43-2,.61-2.83h0c.08-.35.14-.66.2-.93L1141.9,975l-53-.18-2.25,8.14c-8.05,29.09-24.92,52-50.51,67.5-41.17,24.86-95,19.31-130.44-13.36h0a113.93,113.93,0,0,1-33.17-54L870.35,975l-8.35-.11c-3,0-6.07,0-9,0h-3l-31.85,0,2.77,13.32a163.14,163.14,0,0,0,32.66,69.57h0c1.89,2.35,4,4.76,5.93,7h0C860.34,1065.65,861.16,1066.6,861.91,1067.47Zm-30.2-81.58h0q1.15,5.61,2.71,11.06a151.08,151.08,0,0,0,27.74,53.83c1.74,2.16,3.57,4.25,5.4,6.34h0l2.74,3.14,5.26,5.26,1.11.9c1.73,1.4,3.43,2.84,5.13,4.27h0c3.67,3.1,7.35,6.2,11.27,9a151.15,151.15,0,0,0,153,12.36,151.15,151.15,0,0,1-153-12.36c-3.92-2.75-7.6-5.85-11.27-9-1.7-1.43-3.4-2.87-5.13-4.27l-1.11-.9-5.26-5.26c-.9-1-1.82-2.09-2.74-3.14-1.83-2.09-3.66-4.18-5.4-6.34A152,152,0,0,1,831.71,985.89Zm252.55,31.3a131.18,131.18,0,0,0,13-31.28h0A131.18,131.18,0,0,1,1084.26,1017.19Z"/><path class="cls-2" d="M43.8,1067.47l.28.32,6,6L51.6,1075h0c1.38,1.12,2.89,2.39,4.47,3.73h0c3.84,3.24,8.19,6.9,12.52,9.94h0a162.08,162.08,0,0,0,198.87-9.57h0c27-23.23,44.49-52.46,52.63-87h0c.22-.92.44-2,.62-2.83h0c.07-.35.14-.66.19-.93L323.79,975l-53-.18L268.54,983c-8.05,29.09-24.91,52-50.5,67.5-41.17,24.86-95,19.31-130.44-13.36h0a114,114,0,0,1-33.17-54L52.25,975l-8.36-.11c-3,0-6.06,0-9,0h-3L0,974.82l2.77,13.32a163.37,163.37,0,0,0,32.66,69.57h0c1.88,2.35,4,4.76,5.92,7h0C42.23,1065.65,43.06,1066.6,43.8,1067.47ZM13.6,985.89h0q1.17,5.61,2.71,11.06a151.25,151.25,0,0,0,27.74,53.83c1.74,2.16,3.57,4.25,5.41,6.34h0c.91,1.05,1.83,2.09,2.73,3.14l5.26,5.26,1.12.9c1.72,1.4,3.42,2.84,5.13,4.27h0c3.67,3.1,7.34,6.2,11.26,9A151.17,151.17,0,0,0,228,1092a151.17,151.17,0,0,1-153-12.36c-3.92-2.75-7.59-5.85-11.26-9-1.71-1.43-3.41-2.87-5.13-4.27l-1.12-.9-5.26-5.26c-.9-1-1.82-2.09-2.73-3.14-1.83-2.09-3.67-4.18-5.41-6.34A152.23,152.23,0,0,1,13.6,985.89ZM265.69,1018a131.31,131.31,0,0,0,13.51-32.07h0A131.15,131.15,0,0,1,265.69,1018Z"/><path class="cls-2" d="M1136.13,1067.47l.28.32,6,6,1.55,1.25h0c1.38,1.12,2.89,2.39,4.47,3.73h0c3.84,3.24,8.18,6.9,12.52,9.94h0a162.08,162.08,0,0,0,198.87-9.57h0c27-23.23,44.49-52.46,52.63-87h0c.22-.92.44-2,.62-2.83h0c.07-.35.14-.66.19-.93l2.87-13.34-53-.18-2.25,8.14c-8,29.09-24.91,52-50.51,67.5-41.16,24.86-95,19.31-130.44-13.36h0a114,114,0,0,1-33.17-54l-2.17-8.07-8.36-.11c-3,0-6.06,0-9,0h-3l-31.85,0,2.77,13.32a163.25,163.25,0,0,0,32.66,69.57h0c1.88,2.35,4,4.76,5.92,7h0C1134.56,1065.65,1135.39,1066.6,1136.13,1067.47Zm-30.2-81.58h0q1.17,5.61,2.71,11.06a151.08,151.08,0,0,0,27.74,53.83c1.74,2.16,3.57,4.25,5.41,6.34h0c.91,1.05,1.83,2.09,2.73,3.14l5.26,5.26,1.12.9c1.72,1.4,3.42,2.84,5.12,4.27h0c3.68,3.1,7.35,6.2,11.27,9a151.17,151.17,0,0,0,153,12.36,151.17,151.17,0,0,1-153-12.36c-3.92-2.75-7.59-5.85-11.27-9-1.7-1.43-3.4-2.87-5.12-4.27l-1.12-.9-5.26-5.26c-.9-1-1.82-2.09-2.73-3.14-1.84-2.09-3.67-4.18-5.41-6.34A152.23,152.23,0,0,1,1105.93,985.89ZM1358,1018a131.31,131.31,0,0,0,13.51-32.07h0A131.15,131.15,0,0,1,1358,1018Z"/><path class="cls-2" d="M315.82,1067.47l.27.32,6,6,1.55,1.25h0c1.38,1.12,2.89,2.39,4.48,3.73h0c3.84,3.24,8.19,6.9,12.52,9.94h0a162.08,162.08,0,0,0,198.87-9.57h0c27-23.23,44.48-52.46,52.62-87h0c.22-.92.44-2,.62-2.83h0c.07-.35.14-.66.2-.93L595.81,975l-53-.18L540.56,983c-8.06,29.09-24.92,52-50.51,67.5-41.17,24.86-95,19.31-130.44-13.36h0a114,114,0,0,1-33.17-54L324.26,975l-8.35-.11c-3,0-6.07,0-9,0h-3l-31.85,0,2.78,13.32a163.14,163.14,0,0,0,32.66,69.57h0c1.88,2.35,4,4.76,5.92,7h0Zm-30.21-81.58h0q1.17,5.61,2.72,11.06a151.22,151.22,0,0,0,27.73,53.83c1.74,2.16,3.58,4.25,5.41,6.34h0l2.74,3.14,5.25,5.26,1.12.9c1.73,1.4,3.43,2.84,5.13,4.27h0c3.67,3.1,7.34,6.2,11.26,9A151.17,151.17,0,0,0,500,1092a151.17,151.17,0,0,1-153-12.36c-3.92-2.75-7.59-5.85-11.26-9-1.7-1.43-3.4-2.87-5.13-4.27l-1.12-.9-5.25-5.26-2.74-3.14c-1.83-2.09-3.67-4.18-5.41-6.34A152.23,152.23,0,0,1,285.61,985.89Zm252.56,31.3a131.18,131.18,0,0,0,13-31.28h0A131.18,131.18,0,0,1,538.17,1017.19Z"/><path class="cls-2" d="M1408.15,1067.47l.27.32,6,6,1.55,1.25h0c1.38,1.12,2.89,2.39,4.48,3.73h0c3.84,3.24,8.19,6.9,12.52,9.94h0a162.08,162.08,0,0,0,198.87-9.57h0c27-23.23,44.49-52.46,52.63-87h0c.22-.92.44-2,.62-2.83h0c.07-.35.14-.66.2-.93l2.87-13.34-53-.18-2.26,8.14c-8.05,29.09-24.91,52-50.5,67.5-41.17,24.86-95,19.31-130.44-13.36h0a114,114,0,0,1-33.17-54l-2.17-8.07-8.35-.11c-3,0-6.07,0-9,0h-3l-31.85,0,2.78,13.32a163.24,163.24,0,0,0,32.65,69.57h0c1.88,2.35,4,4.76,5.92,7h0Zm-30.21-81.58h0q1.17,5.61,2.72,11.06a151.06,151.06,0,0,0,27.73,53.83c1.74,2.16,3.58,4.25,5.41,6.34h0c.91,1.05,1.83,2.09,2.73,3.14l5.26,5.26,1.12.9c1.72,1.4,3.43,2.84,5.13,4.27h0c3.67,3.1,7.34,6.2,11.26,9a151.17,151.17,0,0,0,153,12.36,151.17,151.17,0,0,1-153-12.36c-3.92-2.75-7.59-5.85-11.26-9-1.7-1.43-3.41-2.87-5.13-4.27l-1.12-.9-5.25-5.26-2.74-3.14c-1.83-2.09-3.67-4.18-5.41-6.34A152.23,152.23,0,0,1,1377.94,985.89Zm252.56,31.3a131.59,131.59,0,0,0,13-31.28h0A131.59,131.59,0,0,1,1630.5,1017.19Z"/><path class="cls-2" d="M591.7,1067.47l.27.32,6,6,1.55,1.25h0c1.39,1.12,2.89,2.39,4.48,3.73h0c3.85,3.24,8.19,6.9,12.52,9.94h0a162.08,162.08,0,0,0,198.87-9.57h0c27-23.23,44.48-52.46,52.63-87h0c.21-.92.43-2,.61-2.83h0c.07-.35.14-.66.2-.93L871.69,975l-53-.18L816.44,983c-8.05,29.09-24.92,52-50.51,67.5-41.17,24.86-95,19.31-130.44-13.36h0a113.93,113.93,0,0,1-33.17-54L600.14,975l-8.35-.11c-3,0-6.07,0-9,0h-3l-31.85,0,2.77,13.32a163.14,163.14,0,0,0,32.66,69.57h0c1.89,2.35,4,4.76,5.93,7h0Zm-30.2-81.58h0q1.15,5.61,2.71,11.06a151.22,151.22,0,0,0,27.73,53.83c1.75,2.16,3.58,4.25,5.41,6.34h0l2.74,3.14,5.26,5.26,1.11.9c1.73,1.4,3.43,2.84,5.13,4.27h0c3.67,3.1,7.34,6.2,11.27,9a151.15,151.15,0,0,0,153,12.36,151.15,151.15,0,0,1-153-12.36c-3.93-2.75-7.6-5.85-11.27-9-1.7-1.43-3.4-2.87-5.13-4.27l-1.11-.9-5.26-5.26-2.74-3.14c-1.83-2.09-3.66-4.18-5.41-6.34A152.09,152.09,0,0,1,561.5,985.89Zm251.38,33.26a130.77,130.77,0,0,0,14.21-33.24h0A130.77,130.77,0,0,1,812.88,1019.15Z"/><path class="cls-2" d="M1684,1067.47l.27.32,6,6,1.55,1.25h0c1.39,1.12,2.89,2.39,4.48,3.73h0c3.85,3.24,8.19,6.9,12.52,9.94h0a162.06,162.06,0,0,0,198.86-9.57h0c27-23.23,44.48-52.46,52.62-87h0c.22-.92.44-2,.62-2.83h0c.07-.35.14-.66.2-.93L1964,975l-53-.18-2.25,8.14c-8.06,29.09-24.92,52-50.51,67.5-41.17,24.86-95,19.31-130.44-13.36h0a113.85,113.85,0,0,1-33.17-54l-2.18-8.07-8.35-.11c-3,0-6.07,0-9,0h-3l-31.85,0,2.78,13.32a163.14,163.14,0,0,0,32.66,69.57h0c1.89,2.35,4,4.76,5.92,7h0Zm-30.21-81.58h0q1.17,5.61,2.72,11.06a151.22,151.22,0,0,0,27.73,53.83c1.74,2.16,3.58,4.25,5.41,6.34h0l2.74,3.14,5.25,5.26,1.12.9c1.73,1.4,3.43,2.84,5.13,4.27h0c3.67,3.1,7.34,6.2,11.26,9a151.17,151.17,0,0,0,153,12.36,151.17,151.17,0,0,1-153-12.36c-3.92-2.75-7.59-5.85-11.26-9-1.7-1.43-3.4-2.87-5.13-4.27l-1.12-.9-5.25-5.26-2.74-3.14c-1.83-2.09-3.66-4.18-5.41-6.34A152.23,152.23,0,0,1,1653.82,985.89Zm251.39,33.26a130.77,130.77,0,0,0,14.21-33.24h0A130.77,130.77,0,0,1,1905.21,1019.15Z"/><path class="cls-2" d="M861.91,1346.47l.27.32,6,6,1.54,1.25h0c1.39,1.12,2.89,2.39,4.48,3.73h0c3.85,3.24,8.19,6.9,12.53,9.94h0a162.08,162.08,0,0,0,198.87-9.57h0c27-23.23,44.49-52.46,52.63-87h0c.21-.92.43-2,.61-2.83h0c.08-.35.14-.66.2-.93l2.87-13.34-53-.18-2.25,8.14c-8.05,29.09-24.92,52-50.51,67.5-41.17,24.86-95,19.31-130.44-13.36h0a113.93,113.93,0,0,1-33.17-54l-2.18-8.07-8.35-.11c-3,0-6.07,0-9,0h-3l-31.85,0,2.77,13.32a163.14,163.14,0,0,0,32.66,69.57h0c1.89,2.35,4,4.76,5.93,7h0C860.34,1344.65,861.16,1345.6,861.91,1346.47Zm-30.2-81.58h0q1.15,5.61,2.71,11.06a151.08,151.08,0,0,0,27.74,53.83c1.74,2.16,3.57,4.25,5.4,6.34h0l2.74,3.14,5.26,5.26,1.11.9c1.73,1.4,3.43,2.84,5.13,4.27h0c3.67,3.1,7.35,6.2,11.27,9a151.15,151.15,0,0,0,153,12.36,151.15,151.15,0,0,1-153-12.36c-3.92-2.75-7.6-5.85-11.27-9-1.7-1.43-3.4-2.87-5.13-4.27l-1.11-.9-5.26-5.26c-.9-1-1.82-2.09-2.74-3.14-1.83-2.09-3.66-4.18-5.4-6.34A152,152,0,0,1,831.71,1264.89Zm252.55,31.3a131.18,131.18,0,0,0,13-31.28h0A131.18,131.18,0,0,1,1084.26,1296.19Z"/><path class="cls-2" d="M43.8,1346.47l.28.32,6,6L51.6,1354h0c1.38,1.12,2.89,2.39,4.47,3.73h0c3.84,3.24,8.19,6.9,12.52,9.94h0a162.08,162.08,0,0,0,198.87-9.57h0c27-23.23,44.49-52.46,52.63-87h0c.22-.92.44-2,.62-2.83h0c.07-.35.14-.66.19-.93l2.87-13.34-53-.18-2.25,8.14c-8.05,29.09-24.91,52-50.5,67.5-41.17,24.86-95,19.31-130.44-13.36h0a114,114,0,0,1-33.17-54L52.25,1254l-8.36-.11c-3,0-6.06,0-9,0h-3l-31.85,0,2.77,13.32a163.37,163.37,0,0,0,32.66,69.57h0c1.88,2.35,4,4.76,5.92,7h0C42.23,1344.65,43.06,1345.6,43.8,1346.47Zm-30.2-81.58h0q1.17,5.61,2.71,11.06a151.25,151.25,0,0,0,27.74,53.83c1.74,2.16,3.57,4.25,5.41,6.34h0c.91,1.05,1.83,2.09,2.73,3.14l5.26,5.26,1.12.9c1.72,1.4,3.42,2.84,5.13,4.27h0c3.67,3.1,7.34,6.2,11.26,9A151.17,151.17,0,0,0,228,1371a151.17,151.17,0,0,1-153-12.36c-3.92-2.75-7.59-5.85-11.26-9-1.71-1.43-3.41-2.87-5.13-4.27l-1.12-.9-5.26-5.26c-.9-1-1.82-2.09-2.73-3.14-1.83-2.09-3.67-4.18-5.41-6.34A152.23,152.23,0,0,1,13.6,1264.89ZM265.69,1297a131.31,131.31,0,0,0,13.51-32.07h0A131.15,131.15,0,0,1,265.69,1297Z"/><path class="cls-2" d="M1136.13,1346.47l.28.32,6,6,1.55,1.25h0c1.38,1.12,2.89,2.39,4.47,3.73h0c3.84,3.24,8.18,6.9,12.52,9.94h0a162.08,162.08,0,0,0,198.87-9.57h0c27-23.23,44.49-52.46,52.63-87h0c.22-.92.44-2,.62-2.83h0c.07-.35.14-.66.19-.93l2.87-13.34-53-.18-2.25,8.14c-8,29.09-24.91,52-50.51,67.5-41.16,24.86-95,19.31-130.44-13.36h0a114,114,0,0,1-33.17-54l-2.17-8.07-8.36-.11c-3,0-6.06,0-9,0h-3l-31.85,0,2.77,13.32a163.25,163.25,0,0,0,32.66,69.57h0c1.88,2.35,4,4.76,5.92,7h0C1134.56,1344.65,1135.39,1345.6,1136.13,1346.47Zm-30.2-81.58h0q1.17,5.61,2.71,11.06a151.08,151.08,0,0,0,27.74,53.83c1.74,2.16,3.57,4.25,5.41,6.34h0c.91,1.05,1.83,2.09,2.73,3.14l5.26,5.26,1.12.9c1.72,1.4,3.42,2.84,5.12,4.27h0c3.68,3.1,7.35,6.2,11.27,9a151.17,151.17,0,0,0,153,12.36,151.17,151.17,0,0,1-153-12.36c-3.92-2.75-7.59-5.85-11.27-9-1.7-1.43-3.4-2.87-5.12-4.27l-1.12-.9-5.26-5.26c-.9-1-1.82-2.09-2.73-3.14-1.84-2.09-3.67-4.18-5.41-6.34A152.23,152.23,0,0,1,1105.93,1264.89ZM1358,1297a131.31,131.31,0,0,0,13.51-32.07h0A131.15,131.15,0,0,1,1358,1297Z"/><path class="cls-2" d="M315.82,1346.47l.27.32,6,6,1.55,1.25h0c1.38,1.12,2.89,2.39,4.48,3.73h0c3.84,3.24,8.19,6.9,12.52,9.94h0a162.08,162.08,0,0,0,198.87-9.57h0c27-23.23,44.48-52.46,52.62-87h0c.22-.92.44-2,.62-2.83h0c.07-.35.14-.66.2-.93l2.87-13.34-53-.18-2.25,8.14c-8.06,29.09-24.92,52-50.51,67.5-41.17,24.86-95,19.31-130.44-13.36h0a114,114,0,0,1-33.17-54l-2.17-8.07-8.35-.11c-3,0-6.07,0-9,0h-3l-31.85,0,2.78,13.32a163.14,163.14,0,0,0,32.66,69.57h0c1.88,2.35,4,4.76,5.92,7h0Zm-30.21-81.58h0q1.17,5.61,2.72,11.06a151.22,151.22,0,0,0,27.73,53.83c1.74,2.16,3.58,4.25,5.41,6.34h0l2.74,3.14,5.25,5.26,1.12.9c1.73,1.4,3.43,2.84,5.13,4.27h0c3.67,3.1,7.34,6.2,11.26,9A151.17,151.17,0,0,0,500,1371a151.17,151.17,0,0,1-153-12.36c-3.92-2.75-7.59-5.85-11.26-9-1.7-1.43-3.4-2.87-5.13-4.27l-1.12-.9-5.25-5.26-2.74-3.14c-1.83-2.09-3.67-4.18-5.41-6.34A152.23,152.23,0,0,1,285.61,1264.89Zm252.56,31.3a131.18,131.18,0,0,0,13-31.28h0A131.18,131.18,0,0,1,538.17,1296.19Z"/><path class="cls-2" d="M1408.15,1346.47l.27.32,6,6,1.55,1.25h0c1.38,1.12,2.89,2.39,4.48,3.73h0c3.84,3.24,8.19,6.9,12.52,9.94h0a162.08,162.08,0,0,0,198.87-9.57h0c27-23.23,44.49-52.46,52.63-87h0c.22-.92.44-2,.62-2.83h0c.07-.35.14-.66.2-.93l2.87-13.34-53-.18-2.26,8.14c-8.05,29.09-24.91,52-50.5,67.5-41.17,24.86-95,19.31-130.44-13.36h0a114,114,0,0,1-33.17-54l-2.17-8.07-8.35-.11c-3,0-6.07,0-9,0h-3l-31.85,0,2.78,13.32a163.24,163.24,0,0,0,32.65,69.57h0c1.88,2.35,4,4.76,5.92,7h0Zm-30.21-81.58h0q1.17,5.61,2.72,11.06a151.06,151.06,0,0,0,27.73,53.83c1.74,2.16,3.58,4.25,5.41,6.34h0c.91,1.05,1.83,2.09,2.73,3.14l5.26,5.26,1.12.9c1.72,1.4,3.43,2.84,5.13,4.27h0c3.67,3.1,7.34,6.2,11.26,9a151.17,151.17,0,0,0,153,12.36,151.17,151.17,0,0,1-153-12.36c-3.92-2.75-7.59-5.85-11.26-9-1.7-1.43-3.41-2.87-5.13-4.27l-1.12-.9-5.25-5.26-2.74-3.14c-1.83-2.09-3.67-4.18-5.41-6.34A152.23,152.23,0,0,1,1377.94,1264.89Zm252.56,31.3a131.59,131.59,0,0,0,13-31.28h0A131.59,131.59,0,0,1,1630.5,1296.19Z"/><path class="cls-2" d="M591.7,1346.47l.27.32,6,6,1.55,1.25h0c1.39,1.12,2.89,2.39,4.48,3.73h0c3.85,3.24,8.19,6.9,12.52,9.94h0a162.08,162.08,0,0,0,198.87-9.57h0c27-23.23,44.48-52.46,52.63-87h0c.21-.92.43-2,.61-2.83h0c.07-.35.14-.66.2-.93l2.87-13.34-53-.18-2.25,8.14c-8.05,29.09-24.92,52-50.51,67.5-41.17,24.86-95,19.31-130.44-13.36h0a113.93,113.93,0,0,1-33.17-54l-2.18-8.07-8.35-.11c-3,0-6.07,0-9,0h-3l-31.85,0,2.77,13.32a163.14,163.14,0,0,0,32.66,69.57h0c1.89,2.35,4,4.76,5.93,7h0Zm-30.2-81.58h0q1.15,5.61,2.71,11.06a151.22,151.22,0,0,0,27.73,53.83c1.75,2.16,3.58,4.25,5.41,6.34h0l2.74,3.14,5.26,5.26,1.11.9c1.73,1.4,3.43,2.84,5.13,4.27h0c3.67,3.1,7.34,6.2,11.27,9a151.15,151.15,0,0,0,153,12.36,151.15,151.15,0,0,1-153-12.36c-3.93-2.75-7.6-5.85-11.27-9-1.7-1.43-3.4-2.87-5.13-4.27l-1.11-.9-5.26-5.26-2.74-3.14c-1.83-2.09-3.66-4.18-5.41-6.34A152.09,152.09,0,0,1,561.5,1264.89Zm251.38,33.26a130.77,130.77,0,0,0,14.21-33.24h0A130.77,130.77,0,0,1,812.88,1298.15Z"/><path class="cls-2" d="M1684,1346.47l.27.32,6,6,1.55,1.25h0c1.39,1.12,2.89,2.39,4.48,3.73h0c3.85,3.24,8.19,6.9,12.52,9.94h0a162.06,162.06,0,0,0,198.86-9.57h0c27-23.23,44.48-52.46,52.62-87h0c.22-.92.44-2,.62-2.83h0c.07-.35.14-.66.2-.93L1964,1254l-53-.18-2.25,8.14c-8.06,29.09-24.92,52-50.51,67.5-41.17,24.86-95,19.31-130.44-13.36h0a113.85,113.85,0,0,1-33.17-54l-2.18-8.07-8.35-.11c-3,0-6.07,0-9,0h-3l-31.85,0,2.78,13.32a163.14,163.14,0,0,0,32.66,69.57h0c1.89,2.35,4,4.76,5.92,7h0Zm-30.21-81.58h0q1.17,5.61,2.72,11.06a151.22,151.22,0,0,0,27.73,53.83c1.74,2.16,3.58,4.25,5.41,6.34h0l2.74,3.14,5.25,5.26,1.12.9c1.73,1.4,3.43,2.84,5.13,4.27h0c3.67,3.1,7.34,6.2,11.26,9a151.17,151.17,0,0,0,153,12.36,151.17,151.17,0,0,1-153-12.36c-3.92-2.75-7.59-5.85-11.26-9-1.7-1.43-3.4-2.87-5.13-4.27l-1.12-.9-5.25-5.26-2.74-3.14c-1.83-2.09-3.66-4.18-5.41-6.34A152.23,152.23,0,0,1,1653.82,1264.89Zm251.39,33.26a130.77,130.77,0,0,0,14.21-33.24h0A130.77,130.77,0,0,1,1905.21,1298.15Z"/><path class="cls-2" d="M43.8,510.44l.28.32,6,6L51.6,518h0c1.38,1.13,2.88,2.4,4.47,3.74h0c3.84,3.24,8.18,6.9,12.52,9.94h0a162.09,162.09,0,0,0,198.87-9.57h0c27-23.23,44.49-52.46,52.63-87h0c.22-.92.44-2,.62-2.83h0c.07-.35.14-.66.19-.93L323.79,418l-53-.18-2.25,8.14c-8.05,29.09-24.91,52-50.5,67.5-41.17,24.86-95,19.3-130.45-13.36h0a113.93,113.93,0,0,1-33.17-54L52.25,418l-8.36-.11c-3,0-6.06,0-9,0h-3L0,417.79l2.77,13.32a163.37,163.37,0,0,0,32.66,69.57h0c1.89,2.35,4,4.76,5.93,6.95h0C42.23,508.62,43.06,509.57,43.8,510.44ZM13.6,428.86h0q1.17,5.61,2.71,11.06a151.25,151.25,0,0,0,27.74,53.83c1.74,2.16,3.57,4.25,5.41,6.34h0c.91,1.05,1.83,2.09,2.73,3.14l5.26,5.26,1.12.9c1.72,1.4,3.42,2.84,5.12,4.27h0c3.68,3.1,7.35,6.2,11.27,9A151.17,151.17,0,0,0,228,535,151.19,151.19,0,0,1,75,522.61c-3.92-2.75-7.59-5.85-11.26-9-1.71-1.43-3.41-2.87-5.13-4.27l-1.12-.9-5.26-5.26c-.9-1.05-1.82-2.09-2.73-3.14-1.83-2.09-3.67-4.18-5.41-6.34A152.23,152.23,0,0,1,13.6,428.86ZM265,462.12a130.69,130.69,0,0,0,14.21-33.25h0A130.77,130.77,0,0,1,265,462.12Z"/><path class="cls-2" d="M315.82,510.44l.27.32,6,6,1.55,1.25h0c1.38,1.13,2.89,2.4,4.48,3.74h0c3.84,3.24,8.19,6.9,12.52,9.94h0a162.09,162.09,0,0,0,198.87-9.57h0c27-23.23,44.48-52.46,52.62-87h0c.22-.92.44-2,.62-2.83h0c.07-.35.14-.66.2-.93L595.81,418l-53-.18-2.25,8.14c-8.06,29.09-24.92,52-50.51,67.5-41.17,24.86-95,19.3-130.44-13.36h0a113.93,113.93,0,0,1-33.17-54L324.26,418l-8.35-.11c-3,0-6.07,0-9,0h-3l-31.85,0,2.78,13.32a163.14,163.14,0,0,0,32.66,69.57h0c1.88,2.35,4,4.76,5.92,6.95h0Zm-30.21-81.58h0q1.17,5.61,2.72,11.06a151.22,151.22,0,0,0,27.73,53.83c1.74,2.16,3.58,4.25,5.41,6.34h0l2.74,3.14,5.25,5.26,1.12.9c1.73,1.4,3.43,2.84,5.13,4.27h0c3.67,3.1,7.34,6.2,11.26,9A151.17,151.17,0,0,0,500,535a151.2,151.2,0,0,1-153-12.36c-3.92-2.75-7.59-5.85-11.26-9-1.7-1.43-3.4-2.87-5.13-4.27l-1.12-.9-5.25-5.26-2.74-3.14c-1.83-2.09-3.67-4.18-5.41-6.34A152.23,152.23,0,0,1,285.61,428.86Zm252.1,32.08a131,131,0,0,0,13.5-32.07h0A131.06,131.06,0,0,1,537.71,460.94Z"/><path class="cls-2" d="M591.7,510.44l.27.32,6,6,1.55,1.25h0c1.39,1.13,2.89,2.4,4.48,3.74h0c3.85,3.24,8.19,6.9,12.52,9.94h0a162.09,162.09,0,0,0,198.87-9.57h0c27-23.23,44.48-52.46,52.63-87h0c.21-.92.43-2,.61-2.83h0c.07-.35.14-.66.2-.93L871.69,418l-53-.18-2.25,8.14c-8.05,29.09-24.92,52-50.51,67.5-41.17,24.86-95,19.3-130.44-13.36h0a113.85,113.85,0,0,1-33.17-54L600.14,418l-8.35-.11c-3,0-6.07,0-9,0h-3l-31.85,0,2.77,13.32a163.14,163.14,0,0,0,32.66,69.57h0c1.89,2.35,4,4.76,5.93,6.95h0Zm-30.2-81.58h0q1.15,5.61,2.71,11.06a151.22,151.22,0,0,0,27.73,53.83c1.75,2.16,3.58,4.25,5.41,6.34h0l2.74,3.14,5.26,5.26,1.11.9c1.73,1.4,3.43,2.84,5.13,4.27h0c3.67,3.1,7.34,6.2,11.27,9a151.15,151.15,0,0,0,153,12.36,151.18,151.18,0,0,1-153-12.36c-3.93-2.75-7.6-5.85-11.27-9-1.7-1.43-3.4-2.87-5.13-4.27l-1.11-.9-5.26-5.26-2.74-3.14c-1.83-2.09-3.66-4.18-5.41-6.34A152.09,152.09,0,0,1,561.5,428.86Zm252.55,31.3a131.25,131.25,0,0,0,13-31.29h0A131.35,131.35,0,0,1,814.05,460.16Z"/><path class="cls-2" d="M860.91,510.44l.27.32,6,6L868.7,518h0c1.39,1.13,2.89,2.4,4.48,3.74h0c3.85,3.24,8.19,6.9,12.53,9.94h0a162.09,162.09,0,0,0,198.87-9.57h0c27-23.23,44.49-52.46,52.63-87h0c.21-.92.43-2,.61-2.83h0c.08-.35.14-.66.2-.93L1140.9,418l-53-.18-2.25,8.14c-8.05,29.09-24.92,52-50.51,67.5-41.17,24.86-95,19.3-130.44-13.36h0a113.85,113.85,0,0,1-33.17-54L869.35,418l-8.35-.11c-3,0-6.07,0-9,0h-3l-31.85,0,2.77,13.32a163.14,163.14,0,0,0,32.66,69.57h0c1.89,2.35,4,4.76,5.93,6.95h0C859.34,508.62,860.16,509.57,860.91,510.44Zm-30.2-81.58h0q1.15,5.61,2.71,11.06a151.08,151.08,0,0,0,27.74,53.83c1.74,2.16,3.57,4.25,5.4,6.34h0l2.74,3.14,5.26,5.26,1.11.9c1.73,1.4,3.43,2.84,5.13,4.27h0c3.67,3.1,7.35,6.2,11.27,9a151.15,151.15,0,0,0,153,12.36,151.18,151.18,0,0,1-153-12.36c-3.92-2.75-7.6-5.85-11.27-9-1.7-1.43-3.4-2.87-5.13-4.27l-1.11-.9-5.26-5.26c-.9-1.05-1.82-2.09-2.74-3.14-1.83-2.09-3.66-4.18-5.4-6.34A152,152,0,0,1,830.71,428.86Zm251.38,33.26a130.69,130.69,0,0,0,14.21-33.25h0A130.77,130.77,0,0,1,1082.09,462.12Z"/><path class="cls-2" d="M1134.58,510.44l.27.32,6,6,1.55,1.25h0c1.38,1.13,2.88,2.4,4.47,3.74h0c3.85,3.24,8.19,6.9,12.53,9.94h0a162.09,162.09,0,0,0,198.87-9.57h0c27-23.23,44.49-52.46,52.63-87h0c.21-.92.43-2,.61-2.83h0c.08-.35.14-.66.2-.93l2.87-13.34-53-.18-2.25,8.14c-8,29.09-24.91,52-50.51,67.5-41.17,24.86-95,19.3-130.44-13.36h0a113.93,113.93,0,0,1-33.17-54L1143,418l-8.35-.11c-3,0-6.06,0-9,0h-3l-31.85,0,2.77,13.32a163.25,163.25,0,0,0,32.66,69.57h0c1.89,2.35,4,4.76,5.93,6.95h0C1133,508.62,1133.84,509.57,1134.58,510.44Zm-30.2-81.58h0q1.17,5.61,2.71,11.06a151.08,151.08,0,0,0,27.74,53.83c1.74,2.16,3.57,4.25,5.4,6.34h0c.92,1.05,1.84,2.09,2.74,3.14l5.26,5.26,1.11.9c1.73,1.4,3.43,2.84,5.13,4.27h0c3.67,3.1,7.35,6.2,11.27,9a151.15,151.15,0,0,0,153,12.36,151.18,151.18,0,0,1-153-12.36c-3.92-2.75-7.6-5.85-11.27-9-1.7-1.43-3.4-2.87-5.13-4.27l-1.11-.9-5.26-5.26c-.9-1.05-1.82-2.09-2.74-3.14-1.83-2.09-3.66-4.18-5.4-6.34A152,152,0,0,1,1104.38,428.86Zm252.09,32.08A131,131,0,0,0,1370,428.87h0A131.47,131.47,0,0,1,1356.47,460.94Z"/><path class="cls-2" d="M1408.8,510.44l.28.32,6,6,1.55,1.25h0c1.38,1.13,2.89,2.4,4.47,3.74h0c3.84,3.24,8.19,6.9,12.52,9.94h0a162.09,162.09,0,0,0,198.87-9.57h0c27-23.23,44.49-52.46,52.63-87h0c.22-.92.44-2,.62-2.83h0c.07-.35.14-.66.19-.93l2.87-13.34-53-.18-2.25,8.14c-8,29.09-24.91,52-50.5,67.5-41.17,24.86-95,19.3-130.45-13.36h0a113.93,113.93,0,0,1-33.17-54l-2.17-8.07-8.36-.11c-3,0-6.06,0-9,0h-3l-31.85,0,2.77,13.32a163.37,163.37,0,0,0,32.66,69.57h0c1.88,2.35,4,4.76,5.92,6.95h0C1407.23,508.62,1408.06,509.57,1408.8,510.44Zm-30.2-81.58h0q1.17,5.61,2.71,11.06a151.25,151.25,0,0,0,27.74,53.83c1.74,2.16,3.57,4.25,5.41,6.34h0c.91,1.05,1.83,2.09,2.73,3.14l5.26,5.26,1.12.9c1.72,1.4,3.42,2.84,5.12,4.27h0c3.68,3.1,7.35,6.2,11.27,9A151.17,151.17,0,0,0,1593,535a151.19,151.19,0,0,1-153-12.36c-3.92-2.75-7.59-5.85-11.26-9-1.71-1.43-3.41-2.87-5.13-4.27l-1.12-.9-5.26-5.26c-.9-1.05-1.82-2.09-2.73-3.14-1.84-2.09-3.67-4.18-5.41-6.34A152.23,152.23,0,0,1,1378.6,428.86ZM1630,462.12a130.69,130.69,0,0,0,14.21-33.25h0A130.77,130.77,0,0,1,1630,462.12Z"/><path class="cls-2" d="M1680.82,510.44l.27.32,6,6,1.55,1.25h0c1.38,1.13,2.89,2.4,4.48,3.74h0c3.84,3.24,8.19,6.9,12.52,9.94h0a162.09,162.09,0,0,0,198.87-9.57h0c27-23.23,44.48-52.46,52.62-87h0c.22-.92.44-2,.62-2.83h0c.07-.35.14-.66.2-.93l2.87-13.34-53-.18-2.25,8.14c-8.06,29.09-24.92,52-50.51,67.5-41.17,24.86-95,19.3-130.44-13.36h0a113.93,113.93,0,0,1-33.17-54l-2.17-8.07-8.35-.11c-3,0-6.07,0-9,0h-3l-31.85,0,2.78,13.32a163.14,163.14,0,0,0,32.66,69.57h0c1.88,2.35,4,4.76,5.92,6.95h0Zm-30.21-81.58h0q1.17,5.61,2.72,11.06a151.22,151.22,0,0,0,27.73,53.83c1.74,2.16,3.58,4.25,5.41,6.34h0l2.74,3.14,5.25,5.26,1.12.9c1.73,1.4,3.43,2.84,5.13,4.27h0c3.67,3.1,7.34,6.2,11.26,9A151.17,151.17,0,0,0,1865,535a151.2,151.2,0,0,1-153-12.36c-3.92-2.75-7.59-5.85-11.26-9-1.7-1.43-3.4-2.87-5.13-4.27l-1.12-.9-5.25-5.26-2.74-3.14c-1.83-2.09-3.67-4.18-5.41-6.34A152.23,152.23,0,0,1,1650.61,428.86Zm252.1,32.08a131,131,0,0,0,13.5-32.07h0A131.06,131.06,0,0,1,1902.71,460.94Z"/><path class="cls-2" d="M43.8,787l.28.32,6,6,1.55,1.25h0c1.38,1.12,2.88,2.39,4.47,3.73h0c3.84,3.24,8.18,6.91,12.52,10h0a162.08,162.08,0,0,0,198.87-9.57h0c27-23.22,44.49-52.46,52.63-87h0c.22-.92.44-2,.62-2.83h0c.07-.35.14-.66.19-.93l2.87-13.34-53-.18-2.25,8.14c-8.05,29.09-24.91,52-50.5,67.5-41.17,24.86-95,19.31-130.45-13.36h0a114,114,0,0,1-33.17-54l-2.17-8.07-8.36-.11c-3,0-6.06,0-9,0h-3L0,694.32l2.77,13.33a163.39,163.39,0,0,0,32.66,69.56h0c1.89,2.34,4,4.76,5.93,6.94h0C42.23,785.16,43.06,786.1,43.8,787ZM13.6,705.39h0q1.17,5.61,2.71,11.06a151.25,151.25,0,0,0,27.74,53.83c1.74,2.17,3.57,4.25,5.41,6.34h0c.91,1,1.83,2.09,2.73,3.14L57.45,785l1.12.9c1.72,1.4,3.42,2.84,5.12,4.27h0c3.68,3.1,7.35,6.2,11.27,8.95A151.17,151.17,0,0,0,228,811.5,151.17,151.17,0,0,1,75,799.14c-3.92-2.75-7.59-5.85-11.26-8.95-1.71-1.43-3.41-2.87-5.13-4.27l-1.12-.9-5.26-5.26c-.9-1-1.82-2.09-2.73-3.14-1.83-2.08-3.67-4.17-5.41-6.34A152.23,152.23,0,0,1,13.6,705.39Zm252.09,32.09a131.15,131.15,0,0,0,13.51-32.07h0A131.15,131.15,0,0,1,265.69,737.48Z"/><path class="cls-2" d="M315.82,787l.27.32,6,6,1.55,1.25h0c1.38,1.12,2.89,2.39,4.48,3.73h0c3.84,3.24,8.19,6.91,12.52,10h0a162.08,162.08,0,0,0,198.87-9.57h0c27-23.22,44.48-52.46,52.62-87h0c.22-.92.44-2,.62-2.83h0c.07-.35.14-.66.2-.93l2.87-13.34-53-.18-2.25,8.14c-8.06,29.09-24.92,52-50.51,67.5-41.17,24.86-95,19.31-130.44-13.36h0a114,114,0,0,1-33.17-54l-2.17-8.07-8.35-.11c-3,0-6.07,0-9,0h-3l-31.85,0,2.78,13.33a163.15,163.15,0,0,0,32.66,69.56h0c1.88,2.34,4,4.76,5.92,6.94h0Zm-30.21-81.58h0q1.17,5.61,2.72,11.06a151.22,151.22,0,0,0,27.73,53.83c1.74,2.17,3.58,4.25,5.41,6.34h0l2.74,3.14,5.25,5.26,1.12.9c1.73,1.4,3.43,2.84,5.13,4.27h0c3.67,3.1,7.34,6.2,11.26,8.95A151.17,151.17,0,0,0,500,811.5a151.17,151.17,0,0,1-153-12.36c-3.92-2.75-7.59-5.85-11.26-8.95-1.7-1.43-3.4-2.87-5.13-4.27l-1.12-.9-5.25-5.26-2.74-3.14c-1.83-2.08-3.67-4.17-5.41-6.34A152.23,152.23,0,0,1,285.61,705.39Zm252.56,31.3a131.18,131.18,0,0,0,13-31.28h0A131.18,131.18,0,0,1,538.17,736.69Z"/><path class="cls-2" d="M591.7,787l.27.32,6,6,1.55,1.25h0c1.39,1.12,2.89,2.39,4.48,3.73h0c3.85,3.24,8.19,6.91,12.52,10h0a162.08,162.08,0,0,0,198.87-9.57h0c27-23.22,44.48-52.46,52.63-87h0c.21-.92.43-2,.61-2.83h0c.07-.35.14-.66.2-.93l2.87-13.34-53-.18-2.25,8.14c-8.05,29.09-24.92,52-50.51,67.5-41.17,24.86-95,19.31-130.44-13.36h0a113.93,113.93,0,0,1-33.17-54l-2.18-8.07-8.35-.11c-3,0-6.07,0-9,0h-3l-31.85,0,2.77,13.33a163.15,163.15,0,0,0,32.66,69.56h0c1.89,2.34,4,4.76,5.93,6.94h0Zm-30.2-81.58h0q1.15,5.61,2.71,11.06a151.22,151.22,0,0,0,27.73,53.83c1.75,2.17,3.58,4.25,5.41,6.34h0l2.74,3.14,5.26,5.26,1.11.9c1.73,1.4,3.43,2.84,5.13,4.27h0c3.67,3.1,7.34,6.2,11.27,8.95a151.15,151.15,0,0,0,153,12.36,151.15,151.15,0,0,1-153-12.36c-3.93-2.75-7.6-5.85-11.27-8.95-1.7-1.43-3.4-2.87-5.13-4.27l-1.11-.9-5.26-5.26-2.74-3.14c-1.83-2.08-3.66-4.17-5.41-6.34A152.09,152.09,0,0,1,561.5,705.39Zm251.38,33.26a130.77,130.77,0,0,0,14.21-33.24h0A130.77,130.77,0,0,1,812.88,738.65Z"/><path class="cls-2" d="M861.91,787l.27.32,6,6,1.54,1.25h0c1.39,1.12,2.89,2.39,4.48,3.73h0c3.85,3.24,8.19,6.91,12.53,10h0a162.08,162.08,0,0,0,198.87-9.57h0c27-23.22,44.49-52.46,52.63-87h0c.21-.92.43-2,.61-2.83h0c.08-.35.14-.66.2-.93l2.87-13.34-53-.18-2.25,8.14c-8.05,29.09-24.92,52-50.51,67.5-41.17,24.86-95,19.31-130.44-13.36h0a113.93,113.93,0,0,1-33.17-54l-2.18-8.07-8.35-.11c-3,0-6.07,0-9,0h-3l-31.85,0,2.77,13.33a163.15,163.15,0,0,0,32.66,69.56h0c1.89,2.34,4,4.76,5.93,6.94h0Zm-30.2-81.58h0q1.15,5.61,2.71,11.06a151.08,151.08,0,0,0,27.74,53.83c1.74,2.17,3.57,4.25,5.4,6.34h0l2.74,3.14,5.26,5.26,1.11.9c1.73,1.4,3.43,2.84,5.13,4.27h0c3.67,3.1,7.35,6.2,11.27,8.95a151.15,151.15,0,0,0,153,12.36,151.15,151.15,0,0,1-153-12.36c-3.92-2.75-7.6-5.85-11.27-8.95-1.7-1.43-3.4-2.87-5.13-4.27l-1.11-.9-5.26-5.26c-.9-1-1.82-2.09-2.74-3.14-1.83-2.08-3.66-4.17-5.4-6.34A152,152,0,0,1,831.71,705.39Zm252.09,32.09a131.13,131.13,0,0,0,13.5-32.07h0A131.13,131.13,0,0,1,1083.8,737.48Z"/><path class="cls-2" d="M1135.58,787l.27.32,6,6,1.55,1.25h0c1.38,1.12,2.88,2.39,4.47,3.73h0c3.85,3.24,8.19,6.91,12.53,10h0a162.08,162.08,0,0,0,198.87-9.57h0c27-23.22,44.49-52.46,52.63-87h0c.21-.92.43-2,.61-2.83h0c.08-.35.14-.66.2-.93l2.87-13.34-53-.18-2.25,8.14c-8,29.09-24.91,52-50.51,67.5-41.17,24.86-95,19.31-130.44-13.36h0a114,114,0,0,1-33.17-54L1144,694.5l-8.35-.11c-3,0-6.06,0-9,0h-3l-31.85,0,2.77,13.33a163.27,163.27,0,0,0,32.66,69.56h0c1.89,2.34,4,4.76,5.93,6.94h0C1134,785.16,1134.84,786.1,1135.58,787Zm-30.2-81.58h0q1.17,5.61,2.71,11.06a151.08,151.08,0,0,0,27.74,53.83c1.74,2.17,3.57,4.25,5.4,6.34h0c.92,1,1.84,2.09,2.74,3.14l5.26,5.26,1.11.9c1.73,1.4,3.43,2.84,5.13,4.27h0c3.67,3.1,7.35,6.2,11.27,8.95a151.15,151.15,0,0,0,153,12.36,151.15,151.15,0,0,1-153-12.36c-3.92-2.75-7.6-5.85-11.27-8.95-1.7-1.43-3.4-2.87-5.13-4.27l-1.11-.9-5.26-5.26c-.9-1-1.82-2.09-2.74-3.14-1.83-2.08-3.66-4.17-5.4-6.34A152,152,0,0,1,1105.38,705.39Zm252.55,31.3a131.61,131.61,0,0,0,13-31.28h0A131.61,131.61,0,0,1,1357.93,736.69Z"/><path class="cls-2" d="M1409.8,787l.28.32,6,6,1.55,1.25h0c1.38,1.12,2.89,2.39,4.47,3.73h0c3.84,3.24,8.19,6.91,12.52,10h0a162.08,162.08,0,0,0,198.87-9.57h0c27-23.22,44.49-52.46,52.63-87h0c.22-.92.44-2,.62-2.83h0c.07-.35.14-.66.19-.93l2.87-13.34-53-.18-2.25,8.14c-8,29.09-24.91,52-50.5,67.5-41.17,24.86-95,19.31-130.45-13.36h0a114,114,0,0,1-33.17-54l-2.17-8.07-8.36-.11c-3,0-6.06,0-9,0h-3l-31.85,0,2.77,13.33a163.39,163.39,0,0,0,32.66,69.56h0c1.88,2.34,4,4.76,5.92,6.94h0C1408.23,785.16,1409.06,786.1,1409.8,787Zm-30.2-81.58h0q1.17,5.61,2.71,11.06a151.25,151.25,0,0,0,27.74,53.83c1.74,2.17,3.57,4.25,5.41,6.34h0c.91,1,1.83,2.09,2.73,3.14l5.26,5.26,1.12.9c1.72,1.4,3.42,2.84,5.12,4.27h0c3.68,3.1,7.35,6.2,11.27,8.95a151.17,151.17,0,0,0,153,12.36,151.17,151.17,0,0,1-153-12.36c-3.92-2.75-7.59-5.85-11.26-8.95-1.71-1.43-3.41-2.87-5.13-4.27l-1.12-.9-5.26-5.26c-.9-1-1.82-2.09-2.73-3.14-1.84-2.08-3.67-4.17-5.41-6.34A152.23,152.23,0,0,1,1379.6,705.39Zm252.09,32.09a131.15,131.15,0,0,0,13.51-32.07h0A131.15,131.15,0,0,1,1631.69,737.48Z"/><path class="cls-2" d="M1681.82,787l.27.32,6,6,1.55,1.25h0c1.38,1.12,2.89,2.39,4.48,3.73h0c3.84,3.24,8.19,6.91,12.52,10h0a162.08,162.08,0,0,0,198.87-9.57h0c27-23.22,44.48-52.46,52.62-87h0c.22-.92.44-2,.62-2.83h0c.07-.35.14-.66.2-.93l2.87-13.34-53-.18-2.25,8.14c-8.06,29.09-24.92,52-50.51,67.5-41.17,24.86-95,19.31-130.44-13.36h0a114,114,0,0,1-33.17-54l-2.17-8.07-8.35-.11c-3,0-6.07,0-9,0h-3l-31.85,0,2.78,13.33a163.15,163.15,0,0,0,32.66,69.56h0c1.88,2.34,4,4.76,5.92,6.94h0Zm-30.21-81.58h0q1.17,5.61,2.72,11.06a151.22,151.22,0,0,0,27.73,53.83c1.74,2.17,3.58,4.25,5.41,6.34h0l2.74,3.14,5.25,5.26,1.12.9c1.73,1.4,3.43,2.84,5.13,4.27h0c3.67,3.1,7.34,6.2,11.26,8.95a151.17,151.17,0,0,0,153,12.36,151.17,151.17,0,0,1-153-12.36c-3.92-2.75-7.59-5.85-11.26-8.95-1.7-1.43-3.4-2.87-5.13-4.27l-1.12-.9-5.25-5.26-2.74-3.14c-1.83-2.08-3.67-4.17-5.41-6.34A152.23,152.23,0,0,1,1651.61,705.39Zm252.56,31.3a131.18,131.18,0,0,0,13-31.28h0A131.18,131.18,0,0,1,1904.17,736.69Z"/><path class="cls-2" d="M1836.54,376.62l.27.32,6,6,1.55,1.25h0c1.38,1.12,2.89,2.39,4.48,3.73h0c3.84,3.25,8.19,6.91,12.52,10h0a162.08,162.08,0,0,0,198.87-9.57h0c27-23.23,44.48-52.46,52.62-87h0c.22-.92.44-2,.62-2.82h0c.07-.34.14-.66.2-.93l2.87-13.33-53-.19-2.25,8.14c-8.06,29.1-24.92,52-50.51,67.51-41.17,24.86-95,19.3-130.44-13.37h0a113.91,113.91,0,0,1-33.17-54l-2.17-8.06-8.35-.12c-3,0-6.07,0-9,0h-3l-31.85,0,2.78,13.33a163.14,163.14,0,0,0,32.66,69.57h0c1.88,2.34,4,4.76,5.92,6.95h0C1835,374.81,1835.79,375.75,1836.54,376.62ZM1806.33,295h0q1.17,5.61,2.72,11.06a151.18,151.18,0,0,0,27.73,53.84c1.74,2.16,3.58,4.25,5.41,6.34h0c.92,1,1.83,2.09,2.74,3.14l5.25,5.26,1.12.9c1.73,1.4,3.43,2.83,5.13,4.27h0c3.67,3.1,7.34,6.2,11.26,8.95a151.22,151.22,0,0,0,153,12.36,151.22,151.22,0,0,1-153-12.36c-3.92-2.75-7.59-5.85-11.26-8.95-1.7-1.44-3.4-2.87-5.13-4.27l-1.12-.9-5.25-5.26c-.91-1.05-1.82-2.1-2.74-3.14-1.83-2.09-3.67-4.18-5.41-6.34A152.27,152.27,0,0,1,1806.33,295Zm252.56,31.3a131,131,0,0,0,13-31.28h0A131,131,0,0,1,2058.89,326.34Z"/><path class="cls-2" d="M1836.82,647.33l.27.32,6,6,1.55,1.25h0c1.38,1.12,2.89,2.39,4.48,3.73h0c3.84,3.24,8.19,6.91,12.52,9.95h0A162.08,162.08,0,0,0,2060.49,659h0c27-23.22,44.48-52.46,52.62-87h0c.22-.92.44-2,.62-2.83h0c.07-.35.14-.66.2-.93l2.87-13.34-53-.18-2.25,8.14c-8.06,29.1-24.92,52-50.51,67.5-41.17,24.86-95,19.31-130.44-13.36h0a114,114,0,0,1-33.17-54l-2.17-8.07-8.35-.11c-3,0-6.07,0-9,0h-3l-31.85,0,2.78,13.33a163.15,163.15,0,0,0,32.66,69.56h0c1.88,2.34,4,4.76,5.92,6.94h0Zm-30.21-81.58h0q1.17,5.61,2.72,11.06a151.22,151.22,0,0,0,27.73,53.83c1.74,2.17,3.58,4.25,5.41,6.34h0c.92,1,1.83,2.08,2.74,3.14l5.25,5.25,1.12.9c1.73,1.4,3.43,2.84,5.13,4.28h0c3.67,3.09,7.34,6.19,11.26,8.94a151.17,151.17,0,0,0,153,12.36,151.17,151.17,0,0,1-153-12.36c-3.92-2.75-7.59-5.85-11.26-9-1.7-1.43-3.4-2.87-5.13-4.27l-1.12-.9-5.25-5.26c-.91-1-1.82-2.09-2.74-3.13-1.83-2.09-3.67-4.18-5.41-6.35A152.17,152.17,0,0,1,1806.61,565.75Zm252.56,31.3a131.18,131.18,0,0,0,13-31.28h0A131.18,131.18,0,0,1,2059.17,597.05Z"/><path class="cls-2" d="M1974.54,233.21l.27.32,6,6,1.55,1.25h0c1.38,1.12,2.89,2.39,4.48,3.73h0c3.84,3.24,8.19,6.91,12.52,9.95h0a162.08,162.08,0,0,0,198.87-9.57h0c27-23.23,44.48-52.47,52.62-87h0c.22-.92.44-2,.62-2.83h0c.07-.34.14-.66.2-.93l2.87-13.33-53-.19-2.25,8.14c-8.06,29.1-24.92,52-50.51,67.5-41.17,24.87-95,19.31-130.44-13.36h0a114,114,0,0,1-33.17-54l-2.17-8.07-8.35-.11c-3,0-6.07,0-9,0h-3l-31.85,0,2.78,13.33a163.1,163.1,0,0,0,32.66,69.56h0c1.88,2.34,4,4.76,5.92,6.94h0C1973,231.4,1973.79,232.34,1974.54,233.21Zm-30.21-81.58h0q1.17,5.61,2.72,11.06a151.22,151.22,0,0,0,27.73,53.83c1.74,2.17,3.58,4.26,5.41,6.35h0c.92,1,1.83,2.08,2.74,3.14l5.25,5.25,1.12.9c1.73,1.41,3.43,2.84,5.13,4.28h0c3.67,3.1,7.34,6.2,11.26,8.94a151.17,151.17,0,0,0,153,12.36,151.17,151.17,0,0,1-153-12.36c-3.92-2.75-7.59-5.84-11.26-8.94-1.7-1.44-3.4-2.88-5.13-4.28l-1.12-.9-5.25-5.25c-.91-1.06-1.82-2.1-2.74-3.14-1.83-2.09-3.67-4.18-5.41-6.35A152.17,152.17,0,0,1,1944.33,151.63Zm252.56,31.3a131,131,0,0,0,13-31.28h0A131,131,0,0,1,2196.89,182.93Z"/><path class="cls-2" d="M1974.54,514.62l.27.32,6,6,1.55,1.25h0c1.38,1.12,2.89,2.39,4.48,3.73h0c3.84,3.25,8.19,6.91,12.52,10h0a162.08,162.08,0,0,0,198.87-9.57h0c27-23.23,44.48-52.46,52.62-87h0c.22-.92.44-2,.62-2.82h0c.07-.34.14-.66.2-.93l2.87-13.33-53-.19-2.25,8.14c-8.06,29.1-24.92,52-50.51,67.51-41.17,24.86-95,19.3-130.44-13.37h0a113.91,113.91,0,0,1-33.17-54l-2.17-8.06-8.35-.12c-3,0-6.07,0-9,0h-3l-31.85,0,2.78,13.33a163.14,163.14,0,0,0,32.66,69.57h0c1.88,2.34,4,4.76,5.92,6.95h0C1973,512.81,1973.79,513.75,1974.54,514.62ZM1944.33,433h0q1.17,5.61,2.72,11.06a151.18,151.18,0,0,0,27.73,53.84c1.74,2.16,3.58,4.25,5.41,6.34h0c.92,1,1.83,2.09,2.74,3.14l5.25,5.26,1.12.9c1.73,1.4,3.43,2.83,5.13,4.27h0c3.67,3.1,7.34,6.2,11.26,8.95a151.22,151.22,0,0,0,153,12.36,151.22,151.22,0,0,1-153-12.36c-3.92-2.75-7.59-5.85-11.26-8.95-1.7-1.44-3.4-2.87-5.13-4.27l-1.12-.9-5.25-5.26c-.91-1.05-1.82-2.1-2.74-3.14-1.83-2.09-3.67-4.18-5.41-6.34A152.27,152.27,0,0,1,1944.33,433Zm252.56,31.3a131,131,0,0,0,13-31.28h0A131,131,0,0,1,2196.89,464.34Z"/><path class="cls-2" d="M1974.54,790.74l.27.32,6,6,1.55,1.25h0c1.38,1.12,2.89,2.39,4.48,3.73h0c3.84,3.25,8.19,6.91,12.52,10h0a162.08,162.08,0,0,0,198.87-9.57h0c27-23.23,44.48-52.46,52.62-87h0c.22-.92.44-2,.62-2.83h0c.07-.34.14-.66.2-.93l2.87-13.33-53-.19-2.25,8.14c-8.06,29.1-24.92,52-50.51,67.5-41.17,24.87-95,19.31-130.44-13.36h0a113.91,113.91,0,0,1-33.17-54l-2.17-8.06-8.35-.12c-3,0-6.07,0-9,0h-3l-31.85,0,2.78,13.33A163.14,163.14,0,0,0,1966.17,781h0c1.88,2.34,4,4.76,5.92,7h0C1973,788.93,1973.79,789.87,1974.54,790.74Zm-30.21-81.58h0q1.17,5.61,2.72,11.06a151.22,151.22,0,0,0,27.73,53.83c1.74,2.17,3.58,4.26,5.41,6.35h0c.92,1,1.83,2.09,2.74,3.14l5.25,5.26,1.12.9c1.73,1.4,3.43,2.83,5.13,4.27h0c3.67,3.1,7.34,6.2,11.26,8.95a151.22,151.22,0,0,0,153,12.36,151.22,151.22,0,0,1-153-12.36c-3.92-2.75-7.59-5.85-11.26-8.95-1.7-1.44-3.4-2.87-5.13-4.27l-1.12-.9-5.25-5.26c-.91-1.06-1.82-2.1-2.74-3.14-1.83-2.09-3.67-4.18-5.41-6.35A152.17,152.17,0,0,1,1944.33,709.16Zm252.56,31.3a131,131,0,0,0,13-31.28h0A131,131,0,0,1,2196.89,740.46Z"/><path class="cls-2" d="M1986.72,1073.62l.27.32,6,6,1.55,1.25h0c1.38,1.12,2.89,2.39,4.48,3.73h0c3.84,3.25,8.19,6.91,12.52,9.95h0a162.08,162.08,0,0,0,198.87-9.57h0c27-23.23,44.48-52.46,52.62-87h0c.22-.92.44-2,.62-2.82h0c.07-.34.14-.66.2-.93l2.87-13.33-53-.19-2.25,8.14c-8.06,29.1-24.92,52-50.51,67.51-41.17,24.86-95,19.3-130.44-13.37h0a113.91,113.91,0,0,1-33.17-54l-2.17-8.06-8.35-.12c-3,0-6.07,0-9,0h-3l-31.85,0,2.78,13.33a163.14,163.14,0,0,0,32.66,69.57h0c1.88,2.34,4,4.76,5.92,7h0C1985.14,1071.81,1986,1072.75,1986.72,1073.62ZM1956.51,992h0q1.17,5.61,2.72,11.06a151.18,151.18,0,0,0,27.73,53.84c1.74,2.16,3.58,4.25,5.41,6.34h0c.92,1,1.83,2.09,2.74,3.14l5.25,5.26,1.12.9c1.73,1.4,3.43,2.83,5.13,4.27h0c3.67,3.1,7.34,6.2,11.26,9a151.22,151.22,0,0,0,153,12.36,151.22,151.22,0,0,1-153-12.36c-3.92-2.75-7.59-5.85-11.26-9-1.7-1.44-3.4-2.87-5.13-4.27l-1.12-.9-5.25-5.26c-.91-1.05-1.82-2.1-2.74-3.14-1.83-2.09-3.67-4.18-5.41-6.34A152.27,152.27,0,0,1,1956.51,992Zm252.56,31.3a131,131,0,0,0,13-31.28h0A131,131,0,0,1,2209.07,1023.34Z"/><path class="cls-2" d="M1836.82,1208.62l.27.32,6,6,1.55,1.25h0c1.38,1.12,2.89,2.39,4.48,3.73h0c3.84,3.25,8.19,6.91,12.52,9.95h0a162.08,162.08,0,0,0,198.87-9.57h0c27-23.23,44.48-52.46,52.62-87h0c.22-.92.44-2,.62-2.82h0c.07-.34.14-.66.2-.93l2.87-13.33-53-.19-2.25,8.14c-8.06,29.1-24.92,52-50.51,67.51-41.17,24.86-95,19.3-130.44-13.37h0a113.91,113.91,0,0,1-33.17-54l-2.17-8.06-8.35-.12c-3,0-6.07,0-9,0h-3l-31.85,0,2.78,13.33a163.14,163.14,0,0,0,32.66,69.57h0c1.88,2.34,4,4.76,5.92,7h0C1835.24,1206.81,1836.07,1207.75,1836.82,1208.62ZM1806.61,1127h0q1.17,5.61,2.72,11.06a151.18,151.18,0,0,0,27.73,53.84c1.74,2.16,3.58,4.25,5.41,6.34h0c.92,1,1.83,2.09,2.74,3.14l5.25,5.26,1.12.9c1.73,1.4,3.43,2.83,5.13,4.27h0c3.67,3.1,7.34,6.2,11.26,9a151.22,151.22,0,0,0,153,12.36,151.22,151.22,0,0,1-153-12.36c-3.92-2.75-7.59-5.85-11.26-9-1.7-1.44-3.4-2.87-5.13-4.27l-1.12-.9-5.25-5.26c-.91-1.05-1.82-2.1-2.74-3.14-1.83-2.09-3.67-4.18-5.41-6.34A152.27,152.27,0,0,1,1806.61,1127Zm252.56,31.3a131,131,0,0,0,13-31.28h0A131,131,0,0,1,2059.17,1158.34Z"/><path class="cls-2" d="M1974.54,1352l.27.31,6,6,1.55,1.24h0c1.38,1.13,2.89,2.39,4.48,3.73h0c3.84,3.24,8.19,6.9,12.52,9.94h0a162.08,162.08,0,0,0,198.87-9.57h0c27-23.23,44.48-52.46,52.62-87h0c.22-.92.44-2,.62-2.83h0c.07-.35.14-.67.2-.93l2.87-13.34-53-.18-2.25,8.13c-8.06,29.1-24.92,52-50.51,67.51-41.17,24.86-95,19.3-130.44-13.36h0a113.91,113.91,0,0,1-33.17-54l-2.17-8.06-8.35-.11c-3,0-6.07,0-9,0h-3l-31.85,0,2.78,13.33a163.14,163.14,0,0,0,32.66,69.57h0c1.88,2.34,4,4.76,5.92,7h0Zm-30.21-81.58h0q1.17,5.6,2.72,11.06a151.22,151.22,0,0,0,27.73,53.83c1.74,2.16,3.58,4.25,5.41,6.34h0l2.74,3.14,5.25,5.26,1.12.9c1.73,1.4,3.43,2.84,5.13,4.27h0c3.67,3.1,7.34,6.2,11.26,9a151.22,151.22,0,0,0,153,12.36,151.22,151.22,0,0,1-153-12.36c-3.92-2.75-7.59-5.85-11.26-9-1.7-1.43-3.4-2.87-5.13-4.27l-1.12-.9-5.25-5.26-2.74-3.14c-1.83-2.09-3.67-4.18-5.41-6.34A152.23,152.23,0,0,1,1944.33,1270.46Zm252.56,31.3a131.25,131.25,0,0,0,13-31.29h0A131.25,131.25,0,0,1,2196.89,1301.76Z"/><path class="cls-2" d="M1836.82,1484.65l.27.32,6,6,1.55,1.25h0c1.38,1.12,2.89,2.39,4.48,3.73h0c3.84,3.25,8.19,6.91,12.52,10h0a162.08,162.08,0,0,0,198.87-9.57h0c27-23.23,44.48-52.46,52.62-87h0c.22-.92.44-2,.62-2.82h0c.07-.34.14-.66.2-.93l2.87-13.33-53-.19-2.25,8.14c-8.06,29.1-24.92,52-50.51,67.51-41.17,24.86-95,19.3-130.44-13.37h0a113.91,113.91,0,0,1-33.17-54l-2.17-8.06-8.35-.11c-3,0-6.07,0-9,0h-3l-31.85,0,2.78,13.33a163.14,163.14,0,0,0,32.66,69.57h0c1.88,2.34,4,4.76,5.92,6.95h0C1835.24,1482.84,1836.07,1483.78,1836.82,1484.65Zm-30.21-81.57h0q1.17,5.6,2.72,11.06a151.22,151.22,0,0,0,27.73,53.83c1.74,2.16,3.58,4.25,5.41,6.34h0c.92,1,1.83,2.09,2.74,3.14l5.25,5.26,1.12.9c1.73,1.4,3.43,2.83,5.13,4.27h0c3.67,3.1,7.34,6.2,11.26,8.95a151.22,151.22,0,0,0,153,12.36,151.22,151.22,0,0,1-153-12.36c-3.92-2.75-7.59-5.85-11.26-8.95-1.7-1.44-3.4-2.87-5.13-4.27l-1.12-.9-5.25-5.26c-.91-1-1.82-2.1-2.74-3.14-1.83-2.09-3.67-4.18-5.41-6.34A152.28,152.28,0,0,1,1806.61,1403.08Zm252.56,31.29a131,131,0,0,0,13-31.28h0A131,131,0,0,1,2059.17,1434.37Z"/><path class="cls-2" d="M-104.09,92.46l.27.32,6,6L-96.3,100h0c1.38,1.13,2.89,2.39,4.48,3.73h0c3.84,3.24,8.19,6.9,12.52,9.94h0a162.08,162.08,0,0,0,198.87-9.57h0c27-23.23,44.48-52.46,52.62-87h0c.22-.93.44-2,.62-2.83h0c.07-.35.14-.67.2-.93L175.9,0l-53-.18L120.65,8c-8.06,29.1-24.92,52-50.51,67.51C29,100.32-24.89,94.76-60.3,62.1h0a113.91,113.91,0,0,1-33.17-54L-95.65,0-104-.11c-3,0-6.07,0-9,0h-3l-31.85,0,2.78,13.33a163.14,163.14,0,0,0,32.66,69.57h0c1.88,2.34,4,4.76,5.92,7h0ZM-134.3,10.89h0q1.17,5.59,2.72,11.06a151.22,151.22,0,0,0,27.73,53.83c1.74,2.16,3.58,4.25,5.41,6.34h0c.92,1,1.83,2.09,2.74,3.14l5.25,5.26,1.12.9c1.73,1.4,3.43,2.84,5.13,4.27h0c3.67,3.1,7.34,6.2,11.26,9A151.22,151.22,0,0,0,80.05,117a151.22,151.22,0,0,1-153-12.36c-3.92-2.75-7.59-5.85-11.26-9-1.7-1.43-3.4-2.87-5.13-4.27l-1.12-.9-5.25-5.26c-.91-1.05-1.82-2.1-2.74-3.14-1.83-2.09-3.67-4.18-5.41-6.34A152.23,152.23,0,0,1-134.3,10.89Zm252.56,31.3a131.25,131.25,0,0,0,13-31.29h0A131.25,131.25,0,0,1,118.26,42.19Z"/><path class="cls-2" d="M-111.46,372.62l.27.32,6,6,1.55,1.25h0c1.38,1.12,2.89,2.39,4.48,3.73h0c3.84,3.25,8.19,6.91,12.52,10h0a162.08,162.08,0,0,0,198.87-9.57h0c27-23.23,44.48-52.46,52.62-87h0c.22-.92.44-2,.62-2.82h0c.07-.34.14-.66.2-.93l2.87-13.33-53-.19-2.25,8.14c-8.06,29.1-24.92,52-50.51,67.51-41.17,24.86-95,19.3-130.44-13.37h0a113.91,113.91,0,0,1-33.17-54l-2.17-8.06-8.35-.12c-3,0-6.07,0-9,0h-3l-31.85,0,2.78,13.33a163.14,163.14,0,0,0,32.66,69.57h0c1.88,2.34,4,4.76,5.92,6.95h0C-113,370.81-112.21,371.75-111.46,372.62ZM-141.67,291h0q1.17,5.61,2.72,11.06a151.18,151.18,0,0,0,27.73,53.84c1.74,2.16,3.58,4.25,5.41,6.34h0c.92,1,1.83,2.09,2.74,3.14l5.25,5.26,1.12.9c1.73,1.4,3.43,2.83,5.13,4.27h0c3.67,3.1,7.34,6.2,11.26,8.95a151.22,151.22,0,0,0,153,12.36,151.22,151.22,0,0,1-153-12.36c-3.92-2.75-7.59-5.85-11.26-8.95-1.7-1.44-3.4-2.87-5.13-4.27l-1.12-.9-5.25-5.26c-.91-1.05-1.82-2.1-2.74-3.14-1.83-2.09-3.67-4.18-5.41-6.34A152.27,152.27,0,0,1-141.67,291Zm252.56,31.3a131,131,0,0,0,13-31.28h0A131,131,0,0,1,110.89,322.34Z"/><path class="cls-2" d="M-99.46,652.62l.27.32,6,6,1.55,1.25h0c1.38,1.12,2.89,2.39,4.48,3.73h0c3.84,3.25,8.19,6.91,12.52,10h0a162.08,162.08,0,0,0,198.87-9.57h0c27-23.23,44.48-52.46,52.62-87h0c.22-.92.44-2,.62-2.82h0c.07-.34.14-.66.2-.93l2.87-13.33-53-.19-2.25,8.14c-8.06,29.1-24.92,52-50.51,67.51-41.17,24.86-95,19.3-130.44-13.37h0a113.91,113.91,0,0,1-33.17-54L-91,560.16l-8.35-.12c-3,0-6.07,0-9,0h-3l-31.85,0,2.78,13.33a163.14,163.14,0,0,0,32.66,69.57h0c1.88,2.34,4,4.76,5.92,7h0C-101,650.81-100.21,651.75-99.46,652.62ZM-129.67,571h0q1.17,5.61,2.72,11.06a151.18,151.18,0,0,0,27.73,53.84c1.74,2.16,3.58,4.25,5.41,6.34h0c.92,1,1.83,2.09,2.74,3.14l5.25,5.26,1.12.9c1.73,1.4,3.43,2.83,5.13,4.27h0c3.67,3.1,7.34,6.2,11.26,8.95a151.22,151.22,0,0,0,153,12.36,151.22,151.22,0,0,1-153-12.36c-3.92-2.75-7.59-5.85-11.26-8.95-1.7-1.44-3.4-2.87-5.13-4.27l-1.12-.9-5.25-5.26c-.91-1-1.82-2.1-2.74-3.14-1.83-2.09-3.67-4.18-5.41-6.34A152.27,152.27,0,0,1-129.67,571Zm252.56,31.3a131,131,0,0,0,13-31.28h0A131,131,0,0,1,122.89,602.34Z"/><path class="cls-2" d="M-99.46,928.62l.27.32,6,6,1.55,1.25h0c1.38,1.12,2.89,2.39,4.48,3.73h0c3.84,3.25,8.19,6.91,12.52,10h0a162.08,162.08,0,0,0,198.87-9.57h0c27-23.23,44.48-52.46,52.62-87h0c.22-.92.44-2,.62-2.82h0c.07-.34.14-.66.2-.93l2.87-13.33-53-.19-2.25,8.14c-8.06,29.1-24.92,52-50.51,67.51-41.17,24.86-95,19.3-130.44-13.37h0a113.91,113.91,0,0,1-33.17-54L-91,836.16l-8.35-.12c-3,0-6.07,0-9,0h-3l-31.85,0,2.78,13.33a163.14,163.14,0,0,0,32.66,69.57h0c1.88,2.34,4,4.76,5.92,7h0C-101,926.81-100.21,927.75-99.46,928.62ZM-129.67,847h0q1.17,5.61,2.72,11.06a151.18,151.18,0,0,0,27.73,53.84c1.74,2.16,3.58,4.25,5.41,6.34h0c.92,1,1.83,2.09,2.74,3.14l5.25,5.26,1.12.9c1.73,1.4,3.43,2.83,5.13,4.27h0c3.67,3.1,7.34,6.2,11.26,8.95a151.22,151.22,0,0,0,153,12.36,151.22,151.22,0,0,1-153-12.36c-3.92-2.75-7.59-5.85-11.26-8.95-1.7-1.44-3.4-2.87-5.13-4.27l-1.12-.9-5.25-5.26c-.91-1-1.82-2.1-2.74-3.14-1.83-2.09-3.67-4.18-5.41-6.34A152.27,152.27,0,0,1-129.67,847Zm252.56,31.3a131,131,0,0,0,13-31.28h0A131,131,0,0,1,122.89,878.34Z"/><path class="cls-2" d="M-113.46,1207.62l.27.32,6,6,1.55,1.25h0c1.38,1.12,2.89,2.39,4.48,3.73h0c3.84,3.25,8.19,6.91,12.52,9.95h0a162.08,162.08,0,0,0,198.87-9.57h0c27-23.23,44.48-52.46,52.62-87h0c.22-.92.44-2,.62-2.82h0c.07-.34.14-.66.2-.93l2.87-13.33-53-.19-2.25,8.14c-8.06,29.1-24.92,52-50.51,67.51-41.17,24.86-95,19.3-130.44-13.37h0a113.91,113.91,0,0,1-33.17-54l-2.17-8.06-8.35-.12c-3,0-6.07,0-9,0h-3l-31.85,0,2.78,13.33a163.14,163.14,0,0,0,32.66,69.57h0c1.88,2.34,4,4.76,5.92,7h0C-115,1205.81-114.21,1206.75-113.46,1207.62ZM-143.67,1126h0q1.17,5.61,2.72,11.06a151.18,151.18,0,0,0,27.73,53.84c1.74,2.16,3.58,4.25,5.41,6.34h0c.92,1,1.83,2.09,2.74,3.14l5.25,5.26,1.12.9c1.73,1.4,3.43,2.83,5.13,4.27h0c3.67,3.1,7.34,6.2,11.26,9a151.22,151.22,0,0,0,153,12.36,151.22,151.22,0,0,1-153-12.36c-3.92-2.75-7.59-5.85-11.26-9-1.7-1.44-3.4-2.87-5.13-4.27l-1.12-.9-5.25-5.26c-.91-1.05-1.82-2.1-2.74-3.14-1.83-2.09-3.67-4.18-5.41-6.34A152.27,152.27,0,0,1-143.67,1126Zm252.56,31.3a131,131,0,0,0,13-31.28h0A131,131,0,0,1,108.89,1157.34Z"/><path class="cls-2" d="M-99.46,1484.65l.27.32,6,6,1.55,1.25h0c1.38,1.12,2.89,2.39,4.48,3.73h0c3.84,3.25,8.19,6.91,12.52,10h0a162.08,162.08,0,0,0,198.87-9.57h0c27-23.23,44.48-52.46,52.62-87h0c.22-.92.44-2,.62-2.82h0c.07-.34.14-.66.2-.93l2.87-13.33-53-.19-2.25,8.14c-8.06,29.1-24.92,52-50.51,67.51-41.17,24.86-95,19.3-130.44-13.37h0a113.91,113.91,0,0,1-33.17-54l-2.17-8.06-8.35-.11c-3,0-6.07,0-9,0h-3l-31.85,0,2.78,13.33a163.14,163.14,0,0,0,32.66,69.57h0c1.88,2.34,4,4.76,5.92,6.95h0C-101,1482.84-100.21,1483.78-99.46,1484.65Zm-30.21-81.57h0q1.17,5.6,2.72,11.06A151.22,151.22,0,0,0-99.22,1468c1.74,2.16,3.58,4.25,5.41,6.34h0c.92,1,1.83,2.09,2.74,3.14l5.25,5.26,1.12.9c1.73,1.4,3.43,2.83,5.13,4.27h0c3.67,3.1,7.34,6.2,11.26,8.95a151.22,151.22,0,0,0,153,12.36,151.22,151.22,0,0,1-153-12.36c-3.92-2.75-7.59-5.85-11.26-8.95-1.7-1.44-3.4-2.87-5.13-4.27l-1.12-.9-5.25-5.26c-.91-1-1.82-2.1-2.74-3.14-1.83-2.09-3.67-4.18-5.41-6.34A152.28,152.28,0,0,1-129.67,1403.08Zm252.56,31.29a131,131,0,0,0,13-31.28h0A131,131,0,0,1,122.89,1434.37Z"/></g></svg>